<svg width="69" height="49" viewBox="0 0 69 49" fill="none" xmlns="http://www.w3.org/2000/svg">
<path d="M0 41.6C0 45.2 2.9 48.1 6.5 48.1H62.5C66.1 48.1 69 45.2 69 41.6V6.5C69 2.9 66.1 0 62.5 0H6.5C2.9 0 0 2.9 0 6.5V41.6ZM2.2 6.5C2.2 4.1 4.2 2.2 6.6 2.2H62.6C65 2.2 67 4.1 67 6.5V25.7H2.2V6.5ZM2.2 27.8H66.9V36.5H2.2V27.8ZM2.2 38.6H66.9V41.6C66.9 44 64.9 45.9 62.5 45.9H6.5C4.1 45.9 2.1 44 2.1 41.6V38.6H2.2Z" fill="#333333"/>
<path d="M55.7002 7H35.3002C34.7002 7 34.2002 7.5 34.2002 8.1C34.2002 8.7 34.7002 9.2 35.3002 9.2H55.7002C56.3002 9.2 56.8002 8.7 56.8002 8.1C56.8002 7.5 56.3002 7 55.7002 7Z" fill="#333333"/>
<path d="M61.2001 7C60.6001 7 60.1001 7.5 60.1001 8.1C60.1001 8.7 60.6001 9.2 61.2001 9.2C61.8001 9.2 62.3001 8.7 62.3001 8.1C62.3001 7.5 61.8001 7 61.2001 7Z" fill="#333333"/>
<path d="M54.3998 14.6H62.5998C63.1998 14.6 63.6998 14.1 63.6998 13.5C63.6998 12.9 63.1998 12.4 62.5998 12.4H54.3998C53.7998 12.4 53.2998 12.9 53.2998 13.5C53.2998 14.1 53.7998 14.6 54.3998 14.6Z" fill="#333333"/>
<path d="M48.9002 12.4H35.3002C34.7002 12.4 34.2002 12.9 34.2002 13.5C34.2002 14.1 34.7002 14.6 35.3002 14.6H48.9002C49.5002 14.6 50.0002 14.1 50.0002 13.5C50.0002 12.9 49.5002 12.4 48.9002 12.4Z" fill="#333333"/>
<path d="M24.7 6.40001C24.7 6.10001 24.5 5.90001 24.3 5.70001C23.8 5.30001 23.2 5.40001 22.8 5.80001L9.99997 20.7C9.79997 20.9 9.69997 21.2 9.79997 21.5C9.79997 21.8 9.99997 22 10.2 22.2C10.4 22.4 10.6 22.5 10.9 22.5C11.2 22.5 11.5 22.4 11.7 22.1L24.5 7.20001C24.7 7.00001 24.8 6.70001 24.7 6.40001Z" fill="#333333"/>
<path d="M10.5998 5.39999C8.4998 5.39999 6.7998 7.09999 6.7998 9.19999C6.7998 11.3 8.4998 13 10.5998 13C12.6998 13 14.3998 11.3 14.3998 9.19999C14.3998 7.09999 12.6998 5.39999 10.5998 5.39999ZM10.5998 10.8C9.6998 10.8 8.9998 10.1 8.9998 9.19999C8.9998 8.29999 9.6998 7.59999 10.5998 7.59999C11.4998 7.59999 12.1998 8.29999 12.1998 9.19999C12.1998 10.1 11.4998 10.8 10.5998 10.8Z" fill="#333333"/>
<path d="M24.0998 14.9C21.9998 14.9 20.2998 16.6 20.2998 18.7C20.2998 20.8 21.9998 22.5 24.0998 22.5C26.1998 22.5 27.8998 20.8 27.8998 18.7C27.8998 16.6 26.1998 14.9 24.0998 14.9ZM24.0998 20.3C23.1998 20.3 22.4998 19.6 22.4998 18.7C22.4998 17.8 23.1998 17.1 24.0998 17.1C24.9998 17.1 25.6998 17.8 25.6998 18.7C25.6998 19.6 24.9998 20.3 24.0998 20.3Z" fill="#333333"/>
</svg>
