<svg width="75" height="75" viewBox="0 0 75 75" fill="none" xmlns="http://www.w3.org/2000/svg">
<path d="M74.3 51.4L73.3 47C73.3 46.9 73.2 46.7 73.1 46.6C73 46.5 72.9 46.4 72.8 46.3C72.7 46.2 72.5 46.2 72.4 46.1C72.3 46.1 72.1 46.1 72 46.1L67.9 47L60.5 12.8C60.4 12.5 60.3 12.3 60 12.1C59.8 11.9 59.5 11.9 59.2 11.9L37.3 16.6L25 19.2L21 0.6C20.9 0.4 20.8 0.1 20.6 0C20.5 0.1 20.3 0 20 0H1.1C1 0 0.8 0 0.7 0.1C0.5 0.1 0.4 0.2 0.3 0.3C0.2 0.4 0.1 0.5 0.1 0.7C0 0.8 0 1 0 1.1V5.5C0 5.8 0.1 6.1 0.3 6.3C0.5 6.5 0.8 6.6 1.1 6.6H15.6L24.7 48.7C22.3 49.4 20.2 50.8 18.6 52.7C17 54.6 15.9 56.9 15.6 59.4C15.3 61.9 15.6 64.4 16.7 66.6C17.7 68.9 19.4 70.8 21.5 72.1C23.6 73.4 26 74.2 28.5 74.2C31 74.2 33.4 73.5 35.5 72.2C37.6 70.9 39.3 69 40.3 66.7C41.4 64.4 41.8 61.9 41.4 59.5L73.5 52.6C73.8 52.5 74 52.4 74.2 52.1C74.3 51.9 74.3 51.6 74.3 51.4ZM31.4 48.5L27.5 30.5L38.7 28.1L40.3 35.7C40.3 35.9 40.5 36.1 40.6 36.3C40.8 36.4 40.9 36.6 41.2 36.6C41.3 36.6 41.3 36.6 41.4 36.6C41.6 36.6 41.8 36.6 41.9 36.5C42.1 36.4 42.2 36.3 42.3 36.1L45.2 31.7L49.3 34.5C49.5 34.6 49.7 34.7 49.9 34.7C50.1 34.7 50.3 34.6 50.5 34.5C50.7 34.4 50.8 34.2 50.9 34C51 33.8 51 33.6 51 33.4L49.4 25.8L60.6 23.4L65.8 47.6L38.8 53.4C37 50.9 34.3 49.2 31.4 48.5ZM45.3 17.3L47 25.2L48.3 31.2L45.5 29.3C45.3 29.1 45 29.1 44.7 29.1C44.4 29.2 44.2 29.3 44 29.6L41.9 32.7L38.9 18.6L45.3 17.3ZM60.1 21.2L48.9 23.6L47.4 16.8L58.6 14.4L60.1 21.2ZM36.7 19.2L38.2 26L27 28.4L25.5 21.6L36.7 19.2ZM16.4 4.4H2.2V2.2H19.1L23.1 21L29 48.2C28.2 48.2 27.5 48.2 26.7 48.3L17.4 5.3C17.3 5.1 17.2 4.8 17 4.7C16.9 4.5 16.7 4.4 16.4 4.4ZM30.7 71.9C28.6 72.4 26.4 72.2 24.4 71.4C22.4 70.6 20.7 69.2 19.5 67.5C18.3 65.7 17.6 63.6 17.6 61.5C17.6 59.3 18.2 57.2 19.3 55.4C20.5 53.6 22.1 52.2 24.1 51.3C26.1 50.4 28.3 50.2 30.4 50.6C32.5 51 34.5 52 36 53.5C37.5 55 38.6 56.9 39.1 59C39.7 61.8 39.2 64.8 37.6 67.2C36 69.6 33.6 71.3 30.7 71.9ZM40.9 57.4C40.7 56.7 40.4 56 40 55.3L71.4 48.5L71.9 50.7L40.9 57.4Z" fill="#333333"/>
</svg>
