<svg width="80" height="80" viewBox="0 0 80 80" fill="none" xmlns="http://www.w3.org/2000/svg">
<path fill-rule="evenodd" clip-rule="evenodd" d="M40.5528 42.9966C48.4407 42.9966 54.8311 36.6104 54.8311 28.7377C54.8311 20.8649 48.4407 14.4787 40.5528 14.4787C32.6648 14.4787 26.2744 20.8649 26.2744 28.7377C26.2744 36.6104 32.6648 42.9966 40.5528 42.9966ZM40.5528 44.9966C49.543 44.9966 56.8311 37.7172 56.8311 28.7377C56.8311 19.7581 49.543 12.4787 40.5528 12.4787C31.5625 12.4787 24.2744 19.7581 24.2744 28.7377C24.2744 37.7172 31.5625 44.9966 40.5528 44.9966Z" fill="#333333"/>
<path fill-rule="evenodd" clip-rule="evenodd" d="M40.6569 18.0156C41.2091 18.0156 41.6569 18.4633 41.6569 19.0156V20.1912C42.9841 20.44 43.9163 21.1803 44.5146 22.0816C45.2173 23.1402 45.4372 24.3762 45.4371 25.2179C45.4371 25.7702 44.9894 26.2179 44.4371 26.2179C43.8848 26.2179 43.4371 25.7701 43.4371 25.2178C43.4372 24.6595 43.2795 23.8373 42.8483 23.1877C42.4531 22.5923 41.8105 22.1015 40.6569 22.1015C39.2642 22.1015 38.6306 22.6588 38.2941 23.2278C37.9107 23.876 37.8405 24.6805 37.8738 25.1466C37.9049 25.582 38.0848 26.2603 38.513 26.8053C38.9082 27.3083 39.5467 27.7462 40.6569 27.7462C41.9945 27.7462 43.2583 28.0259 44.1696 28.9335C45.0798 29.8402 45.4371 31.1728 45.4371 32.806C45.4371 34.5505 44.5814 35.7264 43.5511 36.4283C42.939 36.8453 42.2637 37.0992 41.6569 37.2316V38.5555C41.6569 39.1078 41.2091 39.5555 40.6569 39.5555C40.1046 39.5555 39.6569 39.1078 39.6569 38.5555V37.2209C39.0284 37.0698 38.3288 36.7717 37.6997 36.2671C36.6586 35.4319 35.8764 34.0815 35.8764 32.1064C35.8764 31.5542 36.3241 31.1064 36.8764 31.1064C37.4287 31.1064 37.8764 31.5542 37.8764 32.1064C37.8764 33.4916 38.3962 34.2617 38.9512 34.707C39.5509 35.1881 40.2679 35.3474 40.6569 35.3474C41.0693 35.3474 41.8127 35.1926 42.4251 34.7754C42.9909 34.39 43.4371 33.7952 43.4371 32.806C43.4371 31.415 43.1268 30.7177 42.7581 30.3505C42.3904 29.9843 41.7641 29.7462 40.6569 29.7462C38.9098 29.7462 37.7001 29.008 36.9403 28.0408C36.2135 27.1157 35.9318 26.0299 35.8789 25.2891C35.8282 24.5792 35.9126 23.3256 36.5726 22.2096C37.1585 21.219 38.1508 20.4224 39.6569 20.1786V19.0156C39.6569 18.4633 40.1046 18.0156 40.6569 18.0156Z" fill="#333333"/>
<path fill-rule="evenodd" clip-rule="evenodd" d="M31.4584 49.1598C31.9966 49.4382 32.2442 49.5062 32.3625 49.5062H43.3067C45.8067 49.5062 47.6432 50.7832 48.8308 52.2982C49.0324 52.5554 49.2175 52.8221 49.386 53.0939C49.7819 52.8818 50.214 52.649 50.6706 52.403C52.0184 51.6768 53.5797 50.8356 55.0551 50.0721C56.2509 49.4534 57.418 48.8709 58.4124 48.4203C59.3704 47.9862 60.274 47.6241 60.8951 47.5161C62.2276 47.2843 63.3954 47.8286 64.2365 48.4582C65.0817 49.0909 65.7238 49.8992 66.0719 50.4727C66.341 50.9158 66.2268 51.491 65.809 51.7978C63.0763 53.804 56.6139 58.5436 52.6278 61.4502C47.6124 65.1072 44.7598 66.7777 40.1659 67.5433C38.8805 67.7575 37.0538 67.5385 35.1407 67.1691C33.1865 66.7919 30.9932 66.2256 28.9063 65.6535C27.9846 65.4008 27.0915 65.1493 26.2453 64.911C25.1529 64.6032 24.1385 64.3175 23.2413 64.0797C22.4515 63.8704 21.7841 63.7069 21.2678 63.6055C21.0094 63.5548 20.8042 63.5227 20.6494 63.507C20.508 63.4927 20.4517 63.497 20.4516 63.4962C20.4516 63.4962 20.4518 63.4961 20.4521 63.4961C19.9435 63.5882 19.1258 63.9729 18.2187 64.5132C17.344 65.0342 16.5096 65.6237 16.0166 66.0016C15.5783 66.3376 14.9506 66.2546 14.6146 65.8163C14.2786 65.378 14.3616 64.7503 14.7999 64.4143C15.3447 63.9966 16.2436 63.3617 17.1953 62.7949C18.1103 62.2499 19.2088 61.6846 20.1119 61.5252C20.3608 61.4813 20.628 61.4947 20.8505 61.5172C21.0907 61.5414 21.3626 61.5859 21.6532 61.643C22.235 61.7573 22.953 61.9343 23.7537 62.1465C24.6558 62.3856 25.7033 62.6805 26.8158 62.9938C27.663 63.2323 28.5479 63.4815 29.4351 63.7247C31.5118 64.294 33.6443 64.8433 35.5198 65.2054C37.4365 65.5754 38.9433 65.7195 39.8371 65.5705C43.9597 64.8834 46.503 63.4409 51.4494 59.8341C55.0793 57.1873 60.7661 53.018 63.8144 50.7809C63.5937 50.5323 63.3307 50.2784 63.038 50.0593C62.4281 49.6028 61.8145 49.3862 61.2378 49.4865C60.9041 49.5445 60.222 49.7961 59.2379 50.242C58.2902 50.6715 57.1587 51.2355 55.9743 51.8484C54.5018 52.6104 52.9895 53.4254 51.6607 54.1415C51.1604 54.4111 50.6861 54.6667 50.2498 54.9002C50.4979 55.6114 50.6324 56.2943 50.6514 56.8737C50.6603 57.1445 50.5589 57.4072 50.3705 57.6019C50.1821 57.7966 49.9228 57.9065 49.6519 57.9065H35.3319C34.7796 57.9065 34.3319 57.4588 34.3319 56.9065C34.3319 56.3542 34.7796 55.9065 35.3319 55.9065H48.4718C48.3792 55.5829 48.2504 55.2344 48.0834 54.8795C48.0797 54.8718 48.076 54.8641 48.0725 54.8563C47.8615 54.4119 47.5909 53.9583 47.2567 53.5321C46.3492 52.3743 45.0477 51.5062 43.3067 51.5062H32.3625C31.7025 51.5062 31.059 51.205 30.5394 50.9362C30.2799 50.8019 30.047 50.6735 29.8107 50.5432C29.4741 50.3575 29.1305 50.168 28.6931 49.9524C27.3427 49.2867 25.6257 48.6647 23.3027 48.7595C19.5319 48.9134 17.145 50.6066 16.1049 51.6161C15.7086 52.0007 15.0755 51.9913 14.6908 51.595C14.3062 51.1987 14.3156 50.5656 14.7119 50.1809C16.0239 48.9075 18.8566 46.9393 23.2212 46.7612C25.9828 46.6485 28.0378 47.3995 29.5774 48.1585C30.02 48.3767 30.483 48.6303 30.8721 48.8434C31.0989 48.9677 31.3005 49.0781 31.4584 49.1598Z" fill="#333333"/>
<path fill-rule="evenodd" clip-rule="evenodd" d="M8.83008 48.4611V66.7978H14.4082V48.4611H8.83008ZM7.83008 46.4611C7.27779 46.4611 6.83008 46.9088 6.83008 47.4611V67.7978C6.83008 68.35 7.27779 68.7978 7.83008 68.7978H15.4082C15.9605 68.7978 16.4082 68.35 16.4082 67.7978V47.4611C16.4082 46.9088 15.9605 46.4611 15.4082 46.4611H7.83008Z" fill="#333333"/>
</svg>
