<svg width="74" height="66" viewBox="0 0 74 66" fill="none" xmlns="http://www.w3.org/2000/svg">
<path fill-rule="evenodd" clip-rule="evenodd" d="M21.3708 0.571281C21.7508 0.722991 22 1.09086 22 1.49999V5.905C25.0358 5.72822 30.4239 6.09407 34.9061 8.08618C37.3239 9.16076 39.1176 10.667 40.4224 12.8645C40.7181 13.3626 40.9868 13.8931 41.2315 14.4579L65.2452 20.5305C65.5032 20.5958 65.7246 20.7612 65.8603 20.9902L73.8603 34.4902C74.0435 34.7993 74.0467 35.1829 73.8689 35.4951C73.691 35.8072 73.3593 36 73 36H66V51C66 51.358 65.8086 51.6887 65.4981 51.8671L41.9981 65.3671C41.7775 65.4939 41.5167 65.5317 41.2691 65.473L11.7691 58.473C11.3183 58.366 11 57.9633 11 57.5V50.4425L0.765361 47.9721C0.458119 47.8979 0.204024 47.6829 0.0800878 47.3921C-0.043848 47.1014 -0.0230336 46.7691 0.136222 46.4961L3.63622 40.4961C3.9145 40.0191 4.52682 39.8579 5.00387 40.1362C5.48092 40.4145 5.64206 41.0268 5.36378 41.5039L2.54084 46.3432L29.5234 52.8562L39.9339 35.6562L12.5062 29.1479L10.3742 32.9856C10.1059 33.4684 9.49714 33.6424 9.01436 33.3741C8.53157 33.1059 8.35763 32.4971 8.62584 32.0143L11.1258 27.5144C11.2174 27.3496 11.3537 27.214 11.5189 27.1233L29.9737 16.9962C28.7641 16.6523 27.5685 16.5 26.5 16.5H22V20.5188C22 20.9185 21.7619 21.2799 21.3947 21.4376C21.0274 21.5954 20.6014 21.5193 20.3115 21.244L10.8115 12.2252C10.6191 12.0426 10.5072 11.791 10.5003 11.5258C10.4935 11.2606 10.5923 11.0036 10.775 10.8112L20.275 0.81124C20.5568 0.514619 20.9908 0.41957 21.3708 0.571281ZM32.3844 17.9546L14.7587 27.6268L35.5 32.5485V20.3653C34.5844 19.3385 33.5127 18.5465 32.3844 17.9546ZM37.5 23.6799V33.0231L41.3454 33.9355L62.3593 21.8637L42.0371 16.7246C42.4357 18.0995 42.7441 19.6378 42.9899 21.3586C43.4893 24.8537 43.5228 26.9068 43.2201 28.1175C43.0618 28.7508 42.7805 29.283 42.3 29.6262C41.8252 29.9653 41.3184 30 41 30C40.2496 30 39.6937 29.6272 39.3184 29.129C38.9802 28.68 38.7678 28.107 38.6055 27.5712C38.4812 27.1613 38.3647 26.6941 38.2478 26.2255C38.2095 26.0719 38.1711 25.9181 38.1325 25.7662C37.9707 25.1309 37.7929 24.4817 37.5602 23.8417C37.5405 23.7874 37.5204 23.7335 37.5 23.6799ZM39.5645 15.658C39.5681 15.6675 39.5718 15.6769 39.5757 15.6863C40.2002 17.2662 40.6631 19.2124 41.0101 21.6414C41.5107 25.1463 41.4772 26.8432 41.2799 27.6325C41.2235 27.8579 41.1664 27.9562 41.1407 27.9914C41.1192 27.9951 41.0762 28 41 28C40.9923 28 40.9872 27.9997 40.984 27.9993C40.9754 27.993 40.9518 27.9733 40.9159 27.9257C40.801 27.7731 40.6697 27.4867 40.5195 26.9912C40.411 26.6331 40.3121 26.2366 40.1991 25.7839C40.1585 25.6211 40.116 25.451 40.0707 25.2728C39.9043 24.6191 39.7071 23.8933 39.4398 23.1583C37.0629 16.6218 30.7471 14.5 26.5 14.5H21C20.4477 14.5 20 14.9477 20 15.5V18.1906L12.914 11.4635L20 4.00453V6.99999C20 7.28825 20.1244 7.56249 20.3413 7.75238C20.5582 7.94226 20.8464 8.02932 21.1322 7.99122C23.4975 7.67584 29.3984 7.82694 34.0939 9.9138C36.1761 10.8392 37.6324 12.083 38.7026 13.8855C39.0197 14.4195 39.3059 15.0076 39.5645 15.658ZM41.1568 27.9879C41.1581 27.9874 41.1588 27.9872 41.1588 27.9872L41.1568 27.9879ZM64 23.2277L42.5 35.5788V62.7723L64 50.4212V23.2277ZM40.5 63.2349V38.5834L33.4276 50.2682L37.6733 51.0151C38.2172 51.1108 38.5806 51.6293 38.4849 52.1733C38.3892 52.7172 37.8707 53.0806 37.3267 52.9849L32.3168 52.1035L30.8555 54.5178C30.6299 54.8905 30.1889 55.0743 29.7654 54.9721L13 50.9253V56.7095L40.5 63.2349ZM66 25.149L71.245 34H66V25.149ZM51.8686 36.3534C52.1492 36.8291 51.991 37.4422 51.5153 37.7228L46.8094 40.4986C46.3337 40.7792 45.7206 40.6211 45.44 40.1454C45.1594 39.6697 45.3175 39.0566 45.7932 38.776L50.4992 36.0001C50.9749 35.7195 51.588 35.8777 51.8686 36.3534ZM56.9975 39.781C57.3083 39.9593 57.5 40.2902 57.5 40.6485V49.6552C57.5 50.0105 57.3114 50.3392 57.0046 50.5185L47.0046 56.3633C46.6953 56.5441 46.313 56.5456 46.0023 56.3673C45.6916 56.1891 45.5 55.8582 45.5 55.5V46.5C45.5 46.1448 45.6884 45.8163 45.995 45.6369L55.995 39.7854C56.3042 39.6044 56.6866 39.6028 56.9975 39.781ZM47.5 47.0735V53.7572L55.5 49.0814V42.3923L47.5 47.0735ZM32.6805 56.1383C32.7777 55.5947 33.2973 55.2327 33.8409 55.3299L37.676 56.0156C38.2197 56.1128 38.5816 56.6323 38.4844 57.176C38.3872 57.7196 37.8677 58.0816 37.324 57.9844L33.4889 57.2987C32.9453 57.2015 32.5834 56.682 32.6805 56.1383Z" fill="#333333"/>
</svg>
