<svg width="80" height="80" viewBox="0 0 80 80" fill="none" xmlns="http://www.w3.org/2000/svg">
<path fill-rule="evenodd" clip-rule="evenodd" d="M49.7132 16.3031C49.9384 16.1284 50.2275 16.0581 50.5078 16.1098L62.8892 18.3965C63.0913 18.4338 63.277 18.5325 63.421 18.6791L74.7049 30.1682C75.0858 30.556 75.0871 31.1769 74.708 31.5664L65.75 40.7688C65.5649 40.9589 65.3118 41.0677 65.0465 41.0712C64.7812 41.0747 64.5254 40.9726 64.3354 40.7873L61.4434 37.9682V64.8833C61.4434 65.15 61.3368 65.4057 61.1474 65.5935L51.9397 74.7208C51.7524 74.9065 51.4994 75.0106 51.2357 75.0106H10.9561C10.4038 75.0106 9.95608 74.5629 9.95608 74.0106C9.95608 73.4583 10.4038 73.0106 10.9561 73.0106H50.2357V64.8833C50.2357 64.331 50.6834 63.8833 51.2357 63.8833H59.4434V36.0186L56.4971 33.1466C56.1016 32.7611 56.0935 32.1279 56.479 31.7325C56.8646 31.337 57.4977 31.3289 57.8932 31.7144L65.0149 38.6567L72.5929 30.872L62.2154 20.3059L51.1789 18.2676C50.8883 19.8074 50.1803 21.7003 48.8357 23.3655C47.1172 25.4938 44.3907 27.2063 40.3227 27.3507C36.2225 27.4963 33.417 25.8311 31.6207 23.6591C30.19 21.9292 29.4157 19.9026 29.0821 18.262L17.91 20.3069L7.45586 30.8633L15.2911 38.6514L22.0598 31.7312C22.446 31.3364 23.0791 31.3294 23.4739 31.7156C23.8687 32.1018 23.8758 32.7349 23.4896 33.1297L20.6281 36.0552V46.9225C20.6281 47.4748 20.1803 47.9225 19.6281 47.9225C19.0758 47.9225 18.6281 47.4748 18.6281 46.9225V38.1L16.0159 40.7705C15.8295 40.9611 15.5747 41.0694 15.3081 41.0712C15.0415 41.0731 14.7852 40.9685 14.5961 40.7805L5.338 31.5781C4.94681 31.1893 4.94432 30.5571 5.33243 30.1652L16.7101 18.6762C16.8541 18.5308 17.0393 18.433 17.2406 18.3962L29.7336 16.1095C30.0085 16.0592 30.292 16.1263 30.5153 16.2945C30.7386 16.4627 30.8813 16.7166 30.9088 16.9948C31.0513 18.4373 31.7016 20.6188 33.1619 22.3844C34.5882 24.109 36.8115 25.4741 40.2517 25.352C43.7241 25.2287 45.9148 23.7994 47.2796 22.1091C48.6733 20.3831 49.2381 18.3398 49.3285 17.0246C49.3481 16.7403 49.488 16.4778 49.7132 16.3031ZM58.0141 65.8833H52.2357V71.6113L58.0141 65.8833ZM8.95608 51.2356C8.95608 50.6833 9.40379 50.2356 9.95608 50.2356H36.2403C36.7926 50.2356 37.2403 50.6833 37.2403 51.2356C37.2403 51.7879 36.7926 52.2356 36.2403 52.2356H9.95608C9.40379 52.2356 8.95608 51.7879 8.95608 51.2356ZM8.95608 60.2591C8.95608 59.7068 9.40379 59.2591 9.95608 59.2591H36.2403C36.7926 59.2591 37.2403 59.7068 37.2403 60.2591C37.2403 60.8113 36.7926 61.2591 36.2403 61.2591H9.95608C9.40379 61.2591 8.95608 60.8113 8.95608 60.2591ZM8.95608 69.2324C8.95608 68.6801 9.40379 68.2324 9.95608 68.2324H36.2403C36.7926 68.2324 37.2403 68.6801 37.2403 69.2324C37.2403 69.7847 36.7926 70.2324 36.2403 70.2324H9.95608C9.40379 70.2324 8.95608 69.7847 8.95608 69.2324Z" fill="#333333"/>
<path fill-rule="evenodd" clip-rule="evenodd" d="M39.8542 16.3946L49.7726 18.7828L49.3044 20.7272L39.8676 18.455L30.9569 20.724L30.4634 18.7859L39.8542 16.3946Z" fill="#333333"/>
<path fill-rule="evenodd" clip-rule="evenodd" d="M35.3305 66.071H10.754C8.84066 66.071 7.28955 67.6221 7.28955 69.5355C7.28955 71.4489 8.84066 73 10.754 73H35.3305C37.2439 73 38.795 71.4489 38.795 69.5355C38.795 67.6222 37.2439 66.071 35.3305 66.071ZM10.754 64.071C7.73609 64.071 5.28955 66.5176 5.28955 69.5355C5.28955 72.5535 7.73609 75 10.754 75H35.3305C38.3484 75 40.795 72.5535 40.795 69.5355C40.795 66.5176 38.3484 64.071 35.3305 64.071H10.754Z" fill="#333333"/>
<path fill-rule="evenodd" clip-rule="evenodd" d="M35.3305 57.1312H10.754C8.84066 57.1312 7.28955 58.6823 7.28955 60.5957C7.28955 62.5091 8.84066 64.0602 10.754 64.0602H35.3305C37.2439 64.0602 38.795 62.5091 38.795 60.5957C38.795 58.6823 37.2439 57.1312 35.3305 57.1312ZM10.754 55.1312C7.73609 55.1312 5.28955 57.5777 5.28955 60.5957C5.28955 63.6137 7.73609 66.0602 10.754 66.0602H35.3305C38.3484 66.0602 40.795 63.6137 40.795 60.5957C40.795 57.5777 38.3484 55.1312 35.3305 55.1312H10.754Z" fill="#333333"/>
<path fill-rule="evenodd" clip-rule="evenodd" d="M35.3305 48.2052H10.754C8.84066 48.2052 7.28955 49.7563 7.28955 51.6697C7.28955 53.5831 8.84066 55.1342 10.754 55.1342H35.3305C37.2439 55.1342 38.795 53.5831 38.795 51.6697C38.795 49.7563 37.2439 48.2052 35.3305 48.2052ZM10.754 46.2052C7.73609 46.2052 5.28955 48.6518 5.28955 51.6697C5.28955 54.6877 7.73609 57.1342 10.754 57.1342H35.3305C38.3484 57.1342 40.795 54.6877 40.795 51.6697C40.795 48.6518 38.3484 46.2052 35.3305 46.2052H10.754Z" fill="#333333"/>
<path fill-rule="evenodd" clip-rule="evenodd" d="M39.9999 7.02206C38.0192 7.02206 36.4136 8.62772 36.4136 10.6084C36.4136 11.1607 35.9659 11.6084 35.4136 11.6084C34.8613 11.6084 34.4136 11.1607 34.4136 10.6084C34.4136 7.52316 36.9147 5.02206 39.9999 5.02206C43.0852 5.02206 45.5863 7.52316 45.5863 10.6084C45.5863 13.3523 43.608 15.6342 40.9999 16.1055V17.5225C40.9999 18.0748 40.5522 18.5225 39.9999 18.5225C39.4476 18.5225 38.9999 18.0748 38.9999 17.5225V15.1948C38.9999 14.6425 39.4476 14.1948 39.9999 14.1948C41.9806 14.1948 43.5863 12.5891 43.5863 10.6084C43.5863 8.62772 41.9806 7.02206 39.9999 7.02206Z" fill="#333333"/>
</svg>
