<svg width="66" height="62" viewBox="0 0 66 62" fill="none" xmlns="http://www.w3.org/2000/svg">
<path d="M0.9 61.2H64.3C64.5 61.2 64.8 61.1 64.9 60.9C65.1 60.7 65.2 60.5 65.2 60.3V56C65.2 55.8 65.1 55.5 64.9 55.4C64.7 55.2 64.5 55.1 64.3 55.1H63V38.5C63 38.3 62.9 38 62.7 37.9C62.5 37.7 62.3 37.6 62.1 37.6H48.8V35.4C49.5 34.2 53.6 27.9 56 24.2L56.1 24.1H60C61.4 24.1 62.7 23.5 63.7 22.6C64.7 21.6 65.2 20.3 65.2 18.9C65.2 18.7 65.1 18.4 64.9 18.3C64.7 18.1 64.5 18 64.3 18H53.4C52.1 18 50.8 18.5 49.8 19.4C48.8 20.3 48.2 21.5 48.1 22.8V22.9L44.4 27.4L44.2 27.3C43.1 26.5 41.8 25.9 40.5 25.7L37.2 24.6C37 24.5 36.8 24.5 36.6 24.6L36.4 24.7L36 22.2L36.1 22.1C37.1 21.5 38 20.8 38.6 19.8C39.2 18.8 39.7 17.8 39.8 16.6V16.4H41.2C41.7 16.4 42.2 16.2 42.6 15.8C43 15.4 43.2 14.9 43.2 14.4V13.3C43.2 12.8 43 12.4 42.7 12C42.4 11.6 42 11.4 41.5 11.3L41.1 11.2L42.8 9.49999C43 9.29999 43.1 9.09999 43.1 8.89999V7.79999C43.1 5.79999 42.3 3.89999 40.9 2.49999C39.5 1.09999 37.6 0.299988 35.6 0.299988H29C27 0.299988 25.1 1.09999 23.7 2.49999C22.3 3.89999 21.5 5.79999 21.5 7.79999V8.89999C21.5 9.09999 21.6 9.39999 21.8 9.49999L23.5 11.2L23.1 11.3C22.6 11.4 22.2 11.6 21.9 12C21.6 12.4 21.4 12.8 21.4 13.3V14.4C21.4 14.9 21.6 15.4 22 15.8C22.4 16.2 22.9 16.4 23.4 16.4H24.8V16.6C25 17.7 25.4 18.8 26.1 19.8C26.8 20.7 27.6 21.5 28.6 22.1L28.7 22.2L28.3 24.7L28.1 24.6C27.9 24.5 27.7 24.5 27.5 24.6L24.2 25.7C22.8 25.9 21.5 26.5 20.5 27.3L20.3 27.4L16.6 22.8V22.7C16.5 21.4 15.9 20.2 14.9 19.3C13.9 18.4 12.7 17.9 11.3 17.9H0.9C0.7 17.9 0.4 18 0.3 18.2C0.1 18.3 0 18.5 0 18.8C0 20.2 0.5 21.5 1.5 22.5C2.5 23.5 3.9 24 5.3 24H9.2L16.5 35.4V37.5H3.1C2.9 37.5 2.6 37.6 2.5 37.8C2.3 38 2.2 38.2 2.2 38.4V55H0.9C0.7 55 0.4 55.1 0.3 55.3C0.1 55.5 0 55.7 0 56V60.4C0 60.6 0.1 60.9 0.3 61C0.4 61.1 0.7 61.2 0.9 61.2ZM52.1 39.4H54.7V42H52.1V39.4ZM50.3 39.4V42.9C50.3 43.1 50.4 43.4 50.6 43.5C50.8 43.7 51 43.8 51.2 43.8H55.6C55.8 43.8 56.1 43.7 56.2 43.5C56.4 43.3 56.5 43.1 56.5 42.9V39.4H61.3V55.1H45.5V39.4H50.3ZM50.1 22C50.3 21.3 50.8 20.7 51.4 20.3C52 19.9 52.7 19.7 53.4 19.7H63.3L63.2 20C63 20.7 62.5 21.3 61.9 21.7C61.3 22.1 60.6 22.3 59.9 22.3H50L50.1 22ZM41.6 13.1V14.6H40.1V13.1H41.6ZM25.2 14.6H23.7V13.1H25.2V14.6ZM25.6 8.09999C25.5 8.19999 25.3 8.29999 25.2 8.39999C25.1 8.49999 25.1 8.69999 25.1 8.89999V9.99999L23.6 8.49999V7.79999C23.6 6.29999 24.2 4.89999 25.3 3.79999C26.4 2.69999 27.8 2.09999 29.3 2.09999H35.9C37.4 2.09999 38.9 2.69999 39.9 3.79999C41 4.89999 41.6 6.29999 41.6 7.79999V8.49999L40.1 9.99999V8.89999C40.1 8.69999 40 8.49999 39.9 8.29999C39.8 8.09999 39.6 7.99999 39.4 7.99999L30.6 5.79999C30.4 5.69999 30.2 5.79999 30 5.89999L25.6 8.09999ZM28.6 19.5C27.5 18.4 26.9 17 26.9 15.5V9.49999L30.5 7.69999L38.2 9.59999V15.5C38.2 17 37.6 18.4 36.5 19.5C35.4 20.6 34 21.2 32.5 21.2C31.1 21.2 29.7 20.6 28.6 19.5ZM34.9 26.1L32.6 28.4L30.3 26.1L30.9 22.7H31.1C32.1 22.9 33.2 22.9 34.2 22.7H34.4L34.9 26.1ZM28 26.4L32 30.4C32.3 30.7 32.9 30.7 33.3 30.4L37.3 26.4L38.9 26.9L34.4 33.2H30.9L26.4 26.9L28 26.4ZM34.8 39.4L36.1 47H36L32.7 50.3L29.3 46.9L30.6 39.3H34.8V39.4ZM30.7 37.6L31.1 35H34L34.4 37.6H30.7ZM5.3 22.3C4.6 22.3 3.9 22.1 3.3 21.7C2.7 21.3 2.3 20.7 2 20L1.9 19.7H11.8C12.5 19.7 13.2 19.9 13.8 20.3C14.4 20.7 14.8 21.3 15.1 22L15.2 22.3H5.3ZM11.3 24H15.8L15.9 24.1L24.7463 34.9226C25.0538 35.2988 25.6059 35.3596 25.988 35.0594C26.3795 34.7518 26.4434 34.1833 26.1299 33.7965L22 28.7L22.2 28.6C22.9 28.1 23.7 27.7 24.6 27.5H24.7L29.6 34.4L27.5 47.2C27.5 47.3 27.5 47.5 27.5 47.6C27.5 47.7 27.6 47.9 27.7 48L32.1 52.4C32.4 52.7 33 52.7 33.4 52.4L37.8 48C37.9 47.9 38 47.8 38 47.6C38 47.5 38.1 47.3 38 47.2L35.9 34.4L40.8 27.5H40.9C41.7 27.7 42.5 28.1 43.2 28.6L43.4 28.7L39.2674 33.7997C38.9554 34.1848 39.019 34.7507 39.4087 35.0568C39.7916 35.3577 40.3453 35.294 40.6499 34.9141L49.4 24H53.9L53.7 24.3C47.3 34.3 47 34.8 47 35.2V37.6H44.6C44.4 37.6 44.1 37.7 44 37.9C43.8 38.1 43.7 38.3 43.7 38.5V55.1H21.5V38.5C21.5 38.3 21.4 38 21.2 37.9C21 37.7 20.8 37.6 20.6 37.6H18.2V35.2C18.2 35 18.2 34.9 18.1 34.7L11.3 24ZM10.5 39.4H13.1V42H10.5V39.4ZM4 39.4H8.8V42.9C8.8 43.1 8.9 43.4 9.1 43.5C9.3 43.7 9.5 43.8 9.7 43.8H14C14.2 43.8 14.5 43.7 14.6 43.5C14.8 43.3 14.9 43.1 14.9 42.9V39.4H19.7V55.1H4V39.4ZM1.8 56.9H63.5V59.5H1.8V56.9Z" fill="#333333"/>
</svg>
