<svg width="195" height="20" viewBox="0 0 195 20" fill="none" xmlns="http://www.w3.org/2000/svg">
<path d="M15.9352 15.6471L19.3584 3.52941H22.1913L17.3517 19.6471H14.5188L11.0956 7.29412L7.67252 19.6471H4.83959L0 3.41176H2.83293L6.25605 15.5294L9.67918 3.41176H12.5121L15.9352 15.6471ZM39.543 11.5294C39.543 16.2353 36.0018 20 31.3983 20C26.7948 20 23.2536 16.2353 23.2536 11.5294C23.2536 6.82353 26.7948 2.94118 31.3983 2.94118C36.1199 3.05882 39.543 6.94118 39.543 11.5294ZM36.9461 11.5294C36.9461 8.11765 34.4673 5.41176 31.5163 5.41176C28.4473 5.52941 25.9685 8.23529 25.9685 11.5294C25.9685 14.8235 28.4473 17.5294 31.3983 17.5294C34.4673 17.5294 36.9461 14.9412 36.9461 11.5294ZM64.3311 19.6471H61.6162V9.17647C61.6162 7.05882 60.3178 5.52941 58.0751 5.52941C55.9504 5.52941 54.5339 7.05882 54.5339 9.17647V19.6471H51.937V9.17647C51.937 7.05882 50.5206 5.52941 48.3959 5.52941C46.2712 5.52941 44.8547 7.05882 44.8547 9.17647V19.6471H42.1398V9.29412C42.1398 5.76471 44.7367 3.05882 48.3959 3.05882C50.6386 3.05882 52.2912 4.11765 53.2355 5.76471C54.1798 4.11765 55.8323 3.05882 58.0751 3.05882C61.7343 3.05882 64.3311 5.76471 64.3311 9.29412V19.6471ZM83.0993 14.5882C81.9189 18 79.204 20 75.4268 20C70.8232 20 67.164 16.3529 67.164 11.5294C67.164 6.82353 70.8232 3.05882 75.3087 3.05882C79.4401 3.05882 83.5714 6.47059 83.4534 12.2353H69.8789C70.233 15.6471 72.8299 17.5294 75.5448 17.5294C77.7875 17.5294 79.4401 16.4706 80.3844 14.5882H83.0993ZM80.5024 9.88235C79.7942 7.29412 77.6695 5.52941 75.3087 5.52941C73.066 5.52941 70.7052 7.17647 69.997 9.88235H80.5024ZM89.0012 19.6471H86.4044V9.76471C86.4044 5.64706 89.3553 3.05882 93.1326 3.05882C97.0278 3.05882 99.8608 5.76471 99.8608 9.76471V19.6471H97.2639V9.64706C97.2639 7.17647 95.6114 5.52941 93.1326 5.52941C90.6538 5.52941 89.0012 7.29412 89.0012 9.64706V19.6471ZM115.442 20C111.547 20 108.596 17.8824 108.242 14.4706H110.956C111.311 16.3529 113.199 17.5294 115.442 17.5294C117.921 17.5294 119.455 16.3529 119.455 14.9412C119.455 13.7647 118.983 12.9412 115.088 12.4706C111.192 11.8824 108.714 10.9412 108.714 7.88235C108.714 5.52941 110.72 3.05882 115.088 3.05882C118.865 3.05882 121.344 4.94118 121.698 8.11765H118.983C118.629 6.35294 117.094 5.52941 115.088 5.52941C112.963 5.52941 111.429 6.58824 111.429 7.76471C111.429 8.94118 112.373 9.29412 115.56 9.88235C119.101 10.4706 122.17 11.1765 122.17 14.8235C122.052 18 119.337 20 115.442 20ZM140.466 14.5882C139.286 18 136.571 20 132.794 20C128.19 20 124.531 16.3529 124.531 11.5294C124.531 6.82353 128.19 3.05882 132.676 3.05882C136.925 3.05882 140.938 6.47059 140.82 12.2353H127.246C127.6 15.6471 130.197 17.5294 132.912 17.5294C135.154 17.5294 136.807 16.4706 137.751 14.5882H140.466ZM137.869 9.88235C137.161 7.29412 135.036 5.52941 132.676 5.52941C130.433 5.52941 128.072 7.17647 127.364 9.88235H137.869ZM151.208 20C146.722 20 143.063 16.2353 143.063 11.5294C143.063 6.82353 146.722 3.05882 151.208 3.05882C154.867 3.05882 157.7 5.17647 158.762 8.47059H155.929C154.985 6.70588 153.332 5.52941 151.208 5.52941C148.257 5.52941 145.778 8.23529 145.778 11.6471C145.778 14.9412 148.257 17.6471 151.208 17.6471C153.332 17.6471 154.985 16.4706 155.929 14.7059H158.762C157.7 17.8824 154.867 20 151.208 20ZM168.677 3.17647V5.64706C165.608 5.41177 163.602 6.82353 163.602 10V19.6471H161.005V10C160.887 5.05882 164.428 2.58824 168.677 3.17647ZM185.085 14.5882C183.904 18 181.189 20 177.412 20C172.809 20 169.15 16.3529 169.15 11.5294C169.15 6.82353 172.809 3.05882 177.294 3.05882C181.426 3.05882 185.557 6.47059 185.439 12.2353H171.746C172.1 15.6471 174.697 17.5294 177.412 17.5294C179.655 17.5294 181.307 16.4706 182.252 14.5882H185.085ZM182.606 9.88235C181.898 7.29412 179.773 5.52941 177.412 5.52941C175.169 5.52941 172.809 7.17647 172.1 9.88235H182.606ZM195 19.6471C191.223 20.1176 188.626 17.8824 188.626 13.7647V0H191.223V3.41176H194.882V6H191.223V13.7647C191.223 16.5882 192.993 17.2941 195 17.1765V19.6471ZM102.812 6V0H105.409V6H102.812Z" fill="#333333"/>
</svg>
