<?xml version="1.0" encoding="utf-8"?><svg xmlns="http://www.w3.org/2000/svg" xmlns:xlink="http://www.w3.org/1999/xlink"><symbol viewBox="0 0 38.2 72.1" id="arr-next" xmlns="http://www.w3.org/2000/svg"><path d="M2.1 71.4l35.4-35.3L2.1.7l-.7.7 34.7 34.7L1.4 70.7z"/></symbol><symbol viewBox="0 0 38.2 72.1" id="arr-prev" xmlns="http://www.w3.org/2000/svg"><path d="M36.8 71.4L1.4 36.1 36.8.7l.7.7L2.8 36.1l34.7 34.6z"/></symbol><symbol viewBox="0 0 21 21" id="arrow-search" xmlns="http://www.w3.org/2000/svg"><path d="M3.143 9.214L18.07 2.143 11 17.07l-1.572-6.285-6.285-1.572z"/></symbol><symbol viewBox="0 0 24 24" id="basket" xmlns="http://www.w3.org/2000/svg"><path d="M6.857 3.429L4.286 6.857v12A1.714 1.714 0 006 20.571h12a1.714 1.714 0 001.714-1.714v-12L17.143 3.43H6.857zM4.286 6.857h15.428M15.428 10.286a3.429 3.429 0 11-6.857 0"/></symbol><symbol viewBox="0 0 84 84" id="car" xmlns="http://www.w3.org/2000/svg"><g clip-path="url(#aeclip0)"><path d="M56.805 47.483c-4.031 0-7.31 3.28-7.31 7.311 0 4.031 3.279 7.311 7.31 7.311 4.032 0 7.311-3.28 7.311-7.31 0-4.032-3.28-7.312-7.31-7.312zm0 10.967a3.66 3.66 0 01-3.655-3.656 3.66 3.66 0 013.655-3.655 3.66 3.66 0 013.656 3.655 3.66 3.66 0 01-3.656 3.656zM31.827 47.483c-4.032 0-7.311 3.28-7.311 7.311 0 4.031 3.28 7.311 7.31 7.311 4.032 0 7.312-3.28 7.312-7.31 0-4.032-3.28-7.312-7.311-7.312zm0 10.967a3.66 3.66 0 01-3.656-3.656 3.66 3.66 0 013.656-3.655 3.66 3.66 0 013.655 3.655 3.66 3.66 0 01-3.655 3.656zm29.901-31.893a1.829 1.829 0 00-1.633-1.006h-9.626v3.655h8.499l4.977 9.899 3.266-1.643-5.483-10.905z"/><path d="M51.322 53.027h-13.83v3.656h13.83v-3.656zm-24.981 0h-6.336a1.828 1.828 0 100 3.656h6.337a1.828 1.828 0 100-3.656zm44.274-11.173l-3.595-4.63a1.825 1.825 0 00-1.443-.707H52.295V23.723c0-1.01-.818-1.828-1.827-1.828H20.005a1.828 1.828 0 100 3.655H48.64v12.794c0 1.01.818 1.828 1.828 1.828h14.214l2.662 3.429v9.426h-5.057a1.828 1.828 0 100 3.656h6.884c1.01 0 1.828-.819 1.828-1.828v-11.88c0-.406-.135-.8-.384-1.121zM26.22 43.767h-8.408a1.828 1.828 0 100 3.655h8.408a1.828 1.828 0 100-3.655zm4.204-7.189H14.828a1.828 1.828 0 100 3.655h15.596a1.828 1.828 0 100-3.655z"/><path d="M33.409 29.389H17.812a1.828 1.828 0 100 3.655H33.41a1.828 1.828 0 100-3.655z"/></g><path d="M73.088 15.268a41.238 41.238 0 00-3.343-3.455M63.13 6.857A40.809 40.809 0 0042 1C19.356 1 1 19.356 1 42s18.356 41 41 41 41-18.356 41-41c0-6-1.289-11.698-3.604-16.834"/><defs><clipPath id="aeclip0"><path transform="translate(13 13)" d="M0 0h58v58H0z"/></clipPath></defs></symbol><symbol viewBox="0 0 84 84" id="card" xmlns="http://www.w3.org/2000/svg"><g clip-path="url(#afclip0)"><path d="M65.336 24.733H18.664c-3.123 0-5.664 2.526-5.664 5.63v29.274c0 3.104 2.54 5.63 5.664 5.63h46.672c3.123 0 5.664-2.526 5.664-5.63V30.363c0-3.104-2.54-5.63-5.664-5.63zm3.398 34.904c0 1.862-1.524 3.378-3.398 3.378H18.664c-1.874 0-3.398-1.516-3.398-3.378v-2.252h53.468v2.252zm0-4.504H15.266v-6.755h53.468v6.755zm0-9.007H15.266V30.363c0-1.863 1.524-3.378 3.398-3.378h46.672c1.874 0 3.398 1.515 3.398 3.378v15.763z"/><path d="M42.68 32.84h16.992c.624 0 1.133-.505 1.133-1.126 0-.62-.509-1.126-1.133-1.126H42.68a1.13 1.13 0 00-1.133 1.126c0 .62.508 1.126 1.133 1.126zm21.523 0c.624 0 1.133-.505 1.133-1.126 0-.62-.508-1.126-1.133-1.126-.624 0-1.133.505-1.133 1.126 0 .62.509 1.126 1.133 1.126zm1.133 2.252h-6.797a1.13 1.13 0 00-1.133 1.126 1.13 1.13 0 001.133 1.126h6.797a1.13 1.13 0 001.133-1.126 1.13 1.13 0 00-1.133-1.126zm-11.328 0H42.68a1.13 1.13 0 00-1.133 1.126 1.13 1.13 0 001.133 1.126h11.328a1.13 1.13 0 001.133-1.126 1.13 1.13 0 00-1.133-1.126zm-20.335-5.585a1.137 1.137 0 00-1.597.125L21.428 42.017a1.12 1.12 0 00.125 1.587 1.135 1.135 0 001.597-.124L33.8 31.094a1.12 1.12 0 00-.126-1.587zm-8.213 3.108c0-1.863-1.524-3.378-3.398-3.378-1.873 0-3.398 1.515-3.398 3.378 0 1.862 1.524 3.378 3.398 3.378s3.399-1.516 3.399-3.378zm-4.53 0a1.13 1.13 0 011.133-1.126 1.13 1.13 0 011.132 1.126 1.13 1.13 0 01-1.133 1.126 1.13 1.13 0 01-1.132-1.126zm12.347 4.504c-1.874 0-3.398 1.515-3.398 3.377 0 1.863 1.524 3.378 3.398 3.378s3.399-1.515 3.399-3.378c0-1.862-1.525-3.377-3.399-3.377zm0 4.503a1.13 1.13 0 01-1.133-1.126 1.13 1.13 0 011.133-1.126 1.13 1.13 0 011.133 1.126 1.13 1.13 0 01-1.133 1.126z"/></g><path d="M73.088 15.268a41.238 41.238 0 00-3.343-3.455M63.13 6.857A40.809 40.809 0 0042 1C19.356 1 1 19.356 1 42s18.356 41 41 41 41-18.356 41-41c0-6-1.289-11.698-3.604-16.834"/><defs><clipPath id="afclip0"><path transform="translate(13 25)" d="M0 0h58v40H0z"/></clipPath></defs></symbol><symbol viewBox="0 0 84 84" id="cash" xmlns="http://www.w3.org/2000/svg"><path d="M38.715 36.201c0-.612.491-1.111 1.103-1.111.611 0 1.103.5 1.103 1.11m-2.206.001h1.956m-1.956 0a3.931 3.931 0 002.683 3.732v.676c0 .612.491 1.111 1.103 1.111.611 0 1.103-.5 1.103-1.11v-.613c1.844-.49 3.072-2.27 2.875-4.2m-7.764.404l7.764-.404m-5.558.404h-.25m.25 0h-.25m.25 0c.001.857.63 1.576 1.464 1.69m-1.714-1.69a1.951 1.951 0 001.715 1.941m0-.252a1.147 1.147 0 00-.037.005l.037.247m0-.252l.03.004-.03.248m0-.252c.104-.012.21-.008.311.011a1.696 1.696 0 001.596-1.733 1.694 1.694 0 00-1.685-1.672l-.222 3.646m4.093-2.345c-.206-2-1.875-3.523-3.871-3.523m3.87 3.523l-3.87-3.523m0 0c-.93 0-1.687-.762-1.687-1.706s.757-1.705 1.687-1.705c.929 0 1.686.761 1.686 1.705 0 .612.492 1.112 1.103 1.112s1.103-.5 1.103-1.112m-3.892 1.706l3.892-1.706m0 0a3.928 3.928 0 00-2.896-3.796m2.896 3.796l-2.896-3.796m0 0v-.587c0-.611-.492-1.111-1.103-1.111s-1.103.5-1.103 1.11v.652a3.927 3.927 0 00-2.648 4.254c.258 1.949 1.906 3.406 3.858 3.406l.996-7.724z"/><path d="M29.99 33.45c0 7.033 5.647 12.738 12.619 12.738 6.971 0 12.618-5.705 12.618-12.737 0-7.033-5.647-12.738-12.618-12.738-6.968.008-12.61 5.708-12.619 12.737zm12.62-10.515c5.749 0 10.413 4.706 10.413 10.516S48.359 43.966 42.61 43.966c-5.749 0-10.413-4.705-10.413-10.515.007-5.807 4.667-10.509 10.413-10.516z"/><path d="M44.518 62.25c1.677 0 3.334-.364 4.859-1.07.048-.023.094-.049.138-.078l15.213-9.934c.49-.32.647-.968.361-1.479a4.538 4.538 0 00-6.019-1.852l-6.467 3.085a5.684 5.684 0 00-4.736-2.814l-6.168-.171a6.214 6.214 0 01-2.695-.703l-.627-.328a11.227 11.227 0 00-10.11-.18l.029-1.016a1.108 1.108 0 00-1.073-1.142l-6.763-.187a1.106 1.106 0 00-1.133 1.08l-.409 14.985a1.108 1.108 0 001.073 1.142l6.763.187h.031c.6 0 1.086-.48 1.102-1.08l.016-.573 1.63-.881a2.738 2.738 0 012.062-.228l10.49 2.972.002.001a.918.918 0 00.07.018h.003c.776.164 1.566.246 2.358.246zm0 0V62v.25zm8.881-8.243c.01-.328-.01-.655-.056-.98l6.682-3.187a.616.616 0 00.027-.013h.002a2.335 2.335 0 012.41.17l-14.081 9.197a9.336 9.336 0 01-5.734.644l-10.455-2.963a4.926 4.926 0 00-3.704.408l-.517.28.225-8.256a9.049 9.049 0 019.162-.429l.628.329c1.13.59 2.378.914 3.65.952l6.168.17L53.15 54m.25.008L53.15 54m.25.007L53.15 54m.25.007a1.105 1.105 0 01-1.102 1.08h-.031l-10.14-.282M53.15 54a.857.857 0 01-.852.837h-.024l-10.14-.281m-.006.25l.007-.25m-.007.25l.007-.25m-.007.25l-.822-1.135a.858.858 0 00.829.885m-20.98 4.84l.348-12.763 4.558.126-.348 12.765-4.558-.127z"/><path d="M73.088 15.268a41.238 41.238 0 00-3.343-3.455M63.13 6.857A40.809 40.809 0 0042 1C19.356 1 1 19.356 1 42s18.356 41 41 41 41-18.356 41-41c0-6-1.289-11.698-3.604-16.834"/></symbol><symbol viewBox="0 0 26 26" id="clock" xmlns="http://www.w3.org/2000/svg"><path d="M13 22.286a9.286 9.286 0 100-18.572 9.286 9.286 0 000 18.572z"/><path d="M13 7.429V13l3.714 1.857"/></symbol><symbol viewBox="0 0 28 28" id="eye" xmlns="http://www.w3.org/2000/svg"><path d="M3 14s4-8 11-8 11 8 11 8-4 8-11 8-11-8-11-8z"/><path d="M14 17a3 3 0 100-6 3 3 0 000 6z"/></symbol><symbol viewBox="0 0 13 22" id="fb" xmlns="http://www.w3.org/2000/svg"><path d="M12.487.719L9.375.714c-3.497 0-5.756 1.987-5.756 5.063v2.334H.489c-.27 0-.489.188-.489.42v3.382c0 .232.22.42.49.42h3.129v8.533c0 .232.219.42.489.42H8.19c.27 0 .489-.188.489-.42v-8.534h3.659c.27 0 .49-.187.49-.42v-3.38a.392.392 0 00-.143-.297.534.534 0 00-.346-.123H8.68v-1.98c0-.95.264-1.433 1.71-1.433l2.096-.001c.27 0 .49-.188.49-.42v-3.14c0-.231-.22-.419-.49-.42z"/></symbol><symbol viewBox="0 0 13 25" id="fb-autr" xmlns="http://www.w3.org/2000/svg"><path d="M12.75 8.594H8.062V5.469c0-.863.7-1.563 1.563-1.563h1.563V0H8.062a4.687 4.687 0 00-4.687 4.688v3.906H.25V12.5h3.125V25h4.688V12.5h3.124l1.563-3.906z"/></symbol><symbol viewBox="0 0 25 25" id="gmail-autr" xmlns="http://www.w3.org/2000/svg"><path d="M5.54 15.108l-.87 3.248-3.18.068A12.444 12.444 0 010 12.5c0-2.073.504-4.027 1.398-5.749l2.832.52 1.24 2.814a7.43 7.43 0 00-.4 2.415c0 .918.166 1.797.47 2.608zM24.78 10.165a12.526 12.526 0 01-.055 4.945 12.497 12.497 0 01-4.4 7.138h-.002l-3.566-.183-.505-3.15a7.45 7.45 0 003.206-3.805h-6.685v-4.945H24.78z"/><path d="M20.323 22.247l.001.001A12.447 12.447 0 0112.5 25c-4.76 0-8.9-2.66-11.01-6.576l4.05-3.316a7.433 7.433 0 0010.713 3.806l4.071 3.333zM20.48 2.878l-4.05 3.315a7.435 7.435 0 00-10.959 3.892L1.4 6.751A12.498 12.498 0 0112.5 0c3.033 0 5.814 1.08 7.979 2.878z"/></symbol><symbol viewBox="0 0 24 24" id="hand-wash" xmlns="http://www.w3.org/2000/svg"><g clip-path="url(#amclip0)"><path d="M23.5 9.305c-.379-.299-.81-.086-.81.155 0 .242.175.43.309.565a.435.435 0 01.128.308v.437c0 .24-.196.425-.436.425h-.228c-.126 0-.254.168-.288.375l-.06.376-.3 2.248-1.154-.948c-.7-.575-1.855-.657-2.628-.188l-1.39.846c-.01.006-.024.009-.034.015.009-1.112.114-2.458.244-3.061l.262-1.224.109-.946c.068-.592-.032-1.437-.23-1.922a10.984 10.984 0 00-.743-1.469c-.22-.351-.432-.762-.484-.91-.036-.11-.102-.714-.102-1.476V1.658a.436.436 0 10-.873 0v1.254c0 .46.03 1.42.152 1.763.093.265.363.758.57 1.087.207.328.515.937.675 1.333.141.35.222 1.049.171 1.494l-.102.904-.256 1.182c-.148.69-.264 2.175-.264 3.382 0 1.244-.045 2.141-.068 2.265a.27.27 0 01-.11.099 1.156 1.156 0 01-.395.026l-.051-.009c-.047-.01-.161-.03-.246-.054v-4.908a.436.436 0 10-.873 0v6.072c0 .005.003.01.003.014-.015.07-.031.1-.042.11a1.095 1.095 0 01-.38.082.809.809 0 01-.441-.2 2.737 2.737 0 00-.049-.038v-6.04a.436.436 0 10-.872 0v6.472c0 .006.003.01.003.016l-.02.073c-.03.131-.039.163-.107.219-.024.01-.088.026-.282.02a1.6 1.6 0 01-.26-.072.304.304 0 01-.062-.183c0-.046.003-.082.005-.108a.702.702 0 00-.005-.15v-6.287a.436.436 0 10-.872 0v6.064a2.027 2.027 0 01-.538.013c-.195-.027-.235-.078-.276-.154-.067-.141-.278-1.1-.278-2.288v-.255c0-.214.002-.42.003-.609.004-.354.004-.626-.003-.849V8.785a.436.436 0 10-.872 0v3.746a1.587 1.587 0 01-.476.023c-.061-.026-.236-.183-.34-.375-.07-.143-.202-.96-.202-2.011V7.913c0-.194.106-.638.25-.942.152-.324.463-.87.694-1.216l.879-1.354c.287-.454.504-1.367.504-2.124v-1.2a.436.436 0 10-.873 0v1.2c0 .633-.194 1.382-.37 1.658L7.85 5.272c-.255.382-.588.966-.758 1.328-.19.404-.333.968-.333 1.314v2.254c0 .643.064 1.975.307 2.426.162.3.49.677.828.789.174.058.474.071.755.035v.689c-.303-.002-.593-.069-.808-.198l-1.411-.852c-.768-.463-1.932-.406-2.65.132l-1.389 1.038-.305-2.28-.038-.37c-.021-.205-.194-.375-.387-.374l-.349.004a.436.436 0 01-.436-.436v-.437c0-.12.049-.23.128-.308.13-.135.305-.324.305-.566 0-.24-.43-.454-.81-.155-.304.24-.499.611-.499 1.028v.437a1.31 1.31 0 001.309 1.309c.007 0 .18 1.26.4 2.9.003.034.005.068.015.101.411 3.051.982 7.334.982 7.334.071.53.546.946 1.08.946h16.625c.535 0 1.009-.415 1.08-.946l1.392-10.355A1.308 1.308 0 0024 10.77v-.435a1.31 1.31 0 00-.5-1.03zm-2.766 13.007a.348.348 0 01-.322.284H3.788a.35.35 0 01-.323-.284l-.947-7.097 1.78-1.33c.432-.322 1.215-.361 1.676-.082l1.412.851c.35.211.798.32 1.259.323v.508c0 .014.007.027.009.042.038 1.027.212 1.987.37 2.282.249.464.648.57.926.609.006 0 .365.048.727-.006.085.244.248.468.484.572.151.066.466.165.717.165.246 0 .517-.03.727-.194a1.12 1.12 0 00.364-.475c.121.055.27.103.459.136.26.043.615-.038.854-.136.527-.216.604-.787.615-1.194.02.004.038.008.058.01l.045.009c.23.044.568.024.806-.046.307-.091.6-.373.693-.67.067-.217.094-1.065.103-1.725.179-.056.35-.123.495-.212l1.391-.845c.46-.28 1.203-.228 1.62.115l1.573 1.292-.947 7.098z"/></g><defs><clipPath id="amclip0"><path d="M0 0h24v24H0z"/></clipPath></defs></symbol><symbol viewBox="0 0 20 20" id="icon_size" xmlns="http://www.w3.org/2000/svg"><path d="M15 3.074v13.435c0 .12.097.217.217.217h3.467c.12 0 .217-.097.217-.217V3.074a.217.217 0 00-.217-.217h-3.467a.217.217 0 00-.217.217zm3.467.217v13.002h-3.034V3.29h3.034z"/><path d="M17.167 14.992c0 .12.097.217.217.217h1.3a.217.217 0 000-.433h-1.3a.217.217 0 00-.217.216zm0-3.467c0 .12.097.217.217.217h1.3a.217.217 0 000-.434h-1.3a.217.217 0 00-.217.217zm0-3.467c0 .12.097.217.217.217h1.3a.217.217 0 000-.434h-1.3a.217.217 0 00-.217.217zm0-3.468c0 .12.097.217.217.217h1.3a.217.217 0 000-.433h-1.3a.217.217 0 00-.217.217zm-1.084 1.734c0 .12.097.217.217.217h2.383a.217.217 0 000-.433H16.3a.217.217 0 00-.217.216zm0 3.468c0 .12.097.216.217.216h2.383a.217.217 0 000-.433H16.3a.217.217 0 00-.217.217zm0 3.467c0 .12.097.217.217.217h2.383a.217.217 0 000-.434H16.3a.217.217 0 00-.217.217zm-1.578-6.765a.217.217 0 00-.01-.01l-3.011-2.75a.285.285 0 00-.095-.06l-2.177-.8a.284.284 0 00-.367.177.301.301 0 00-.017.086c0 .064-.094 1.555-1.545 1.579-1.46-.024-1.55-1.515-1.554-1.58a.29.29 0 00-.3-.277.28.28 0 00-.08.016l-2.175.809a.284.284 0 00-.095.058L.09 6.485a.3.3 0 000 .426l2.38 2.473v6.765a.29.29 0 00.287.294h9.071a.29.29 0 00.286-.294V9.383l2.381-2.473a.3.3 0 00.01-.416zm-2.4 2.051V7.181a.29.29 0 00-.286-.295.29.29 0 00-.287.295v8.658h-8.5V7.181a.29.29 0 00-.286-.295.29.29 0 00-.287.295v1.367L.698 6.716 3.424 4.21l1.791-.665c.222 1.176 1.329 1.943 2.472 1.715a2.139 2.139 0 001.669-1.715l1.791.665 2.716 2.506-1.757 1.83z"/></symbol><symbol viewBox="0 0 24 24" id="insta" xmlns="http://www.w3.org/2000/svg"><path d="M22.23 7.762c-.049-1.093-.225-1.844-.479-2.495a5.021 5.021 0 00-1.19-1.825 5.062 5.062 0 00-1.82-1.185c-.655-.253-1.402-.43-2.495-.478-1.101-.053-1.451-.065-4.244-.065-2.793 0-3.142.012-4.24.06-1.093.049-1.844.226-2.495.479a5.02 5.02 0 00-1.825 1.19 5.065 5.065 0 00-1.185 1.82c-.253.655-.43 1.402-.478 2.495-.053 1.102-.065 1.451-.065 4.244 0 2.793.012 3.143.06 4.24.049 1.093.226 1.844.479 2.495.261.692.667 1.31 1.19 1.825a5.063 5.063 0 001.82 1.185c.655.253 1.402.43 2.495.478 1.097.049 1.447.06 4.24.06s3.143-.011 4.24-.06c1.093-.048 1.844-.225 2.495-.478a5.262 5.262 0 003.01-3.01c.253-.655.43-1.402.479-2.495.048-1.097.06-1.447.06-4.24s-.004-3.142-.052-4.24zm-1.853 8.4c-.044 1.004-.213 1.547-.354 1.908a3.412 3.412 0 01-1.953 1.953c-.361.141-.908.31-1.909.354-1.085.048-1.41.06-4.155.06s-3.074-.012-4.155-.06c-1.005-.044-1.547-.213-1.91-.354a3.166 3.166 0 01-1.18-.767 3.198 3.198 0 01-.768-1.182c-.14-.361-.31-.908-.354-1.909-.048-1.085-.06-1.41-.06-4.155s.012-3.074.06-4.155c.044-1.005.213-1.547.354-1.909a3.13 3.13 0 01.772-1.182 3.193 3.193 0 011.181-.767c.362-.14.908-.31 1.909-.354 1.085-.048 1.41-.06 4.155-.06 2.749 0 3.074.012 4.155.06 1.005.045 1.548.213 1.91.354.445.165.851.426 1.18.767.342.334.604.736.768 1.182.141.362.31.908.354 1.909.048 1.085.06 1.41.06 4.155s-.012 3.066-.06 4.151z"/><path d="M12.001 6.718a5.286 5.286 0 00-5.284 5.284A5.286 5.286 0 0012 17.287a5.286 5.286 0 000-10.57zm0 8.712a3.428 3.428 0 11.001-6.857 3.428 3.428 0 010 6.857zm6.729-8.921a1.234 1.234 0 11-2.468 0 1.234 1.234 0 012.467 0z"/></symbol><symbol viewBox="0 0 24 24" id="iron-electric-heat" xmlns="http://www.w3.org/2000/svg"><path d="M23.66 10.713l-1.874-4.235c-.234-.532-.842-.935-1.424-.95l-11.75-1.64-.063-.005A1.57 1.57 0 006.98 5.452v.526a1.57 1.57 0 001.53 1.569l10.251 1.638.071.005c.225 0 .514.2.594.41l.544 1.43c.018.046.018.072.02.076a.184.184 0 01-.082.014h-2.39v-.465c0-.247-.2-.448-.449-.448H12.61c-.247 0-.448.2-.448.448v.465H7.544C3.384 11.12 0 14.505 0 18.664c0 .18.006.358.018.533.035.513.583.916 1.247.917l21.541.003c.659 0 1.194-.536 1.194-1.195v-6.598c0-.472-.15-1.18-.34-1.611zm-.555 8.209a.299.299 0 01-.298.298v.448l-.001-.448-21.54-.003c-.2 0-.337-.084-.352-.084H.913a6.655 6.655 0 016.632-7.117H19.91c.345 0 .644-.146.819-.399.175-.252.204-.583.082-.907l-.545-1.43c-.21-.55-.804-.967-1.392-.985L8.622 6.657l-.07-.006a.674.674 0 01-.673-.673v-.526c0-.362.287-.658.645-.672l11.743 1.638.062.004c.234 0 .544.203.64.418l1.873 4.235c.14.317.264.901.264 1.249v6.598h-.001z"/></symbol><symbol viewBox="0 0 84 84" id="letter" xmlns="http://www.w3.org/2000/svg"><path d="M50.438 60.438c0 .862-.7 1.562-1.563 1.562H29.812a6.257 6.257 0 01-6.25-6.25V38.406a1.562 1.562 0 113.125 0V55.75a3.129 3.129 0 003.125 3.125h19.063c.863 0 1.563.7 1.563 1.563zM62 26.688v4.687c0 .863-.7 1.563-1.563 1.563v11.406a1.562 1.562 0 11-3.124 0V32.937h-33.75A1.562 1.562 0 0122 31.375v-4.688A4.693 4.693 0 0126.688 22h30.625A4.693 4.693 0 0162 26.688zm-36.875 3.125h33.75v-3.125c0-.862-.701-1.563-1.563-1.563H26.689c-.862 0-1.563.701-1.563 1.563v3.125zm20.313 9.375a1.562 1.562 0 100-3.126h-7.032a1.562 1.562 0 100 3.126h7.032zm9.648 8.984h-8.242l1.958-1.936a1.562 1.562 0 10-2.197-2.222l-2.902 2.87a3.862 3.862 0 00-1.156 2.759 3.862 3.862 0 001.148 2.762l2.906 2.89a1.559 1.559 0 002.21-.006 1.562 1.562 0 00-.006-2.21l-1.793-1.782h8.074c2.09 0 3.789 1.7 3.789 3.789 0 2.09-1.68 3.789-3.746 3.789a1.562 1.562 0 100 3.125 6.803 6.803 0 004.874-2.031A6.897 6.897 0 0062 55.086a6.922 6.922 0 00-6.914-6.914z"/><path d="M14.255 72.187a41.202 41.202 0 01-1.73-1.687m8.345 6.643A40.809 40.809 0 0042 83c22.644 0 41-18.356 41-41S64.644 1 42 1 1 19.356 1 42c0 6 1.289 11.698 3.604 16.834"/></symbol><symbol viewBox="0 0 84 84" id="letter2" xmlns="http://www.w3.org/2000/svg"><path d="M66.165 51.423L43.582 38.406v-.969c0-1.104.634-2.132 1.654-2.681a6.731 6.731 0 003.565-6.22c-.134-3.514-3.006-6.37-6.537-6.504a6.771 6.771 0 00-4.983 1.887 6.698 6.698 0 00-2.087 4.879c0 .869.708 1.573 1.582 1.573.874 0 1.582-.704 1.582-1.573 0-.995.397-1.922 1.117-2.612a3.622 3.622 0 012.669-1.01c1.888.072 3.423 1.6 3.495 3.479a3.607 3.607 0 01-1.91 3.333c-2.042 1.1-3.311 3.188-3.311 5.449v.969L17.835 51.422A5.668 5.668 0 0015 56.317c0 3.119 2.55 5.656 5.685 5.656h42.63c3.135 0 5.685-2.537 5.685-5.656a5.668 5.668 0 00-2.835-4.894zm-2.85 7.403h-42.63a2.518 2.518 0 01-2.52-2.509c0-.892.48-1.724 1.257-2.17L42 41.13l22.578 13.015a2.514 2.514 0 011.258 2.171 2.518 2.518 0 01-2.521 2.509z"/><path d="M10.912 15.268a41.238 41.238 0 013.343-3.455m6.615-4.956A40.809 40.809 0 0142 1c22.644 0 41 18.356 41 41S64.644 83 42 83 1 64.644 1 42c0-6 1.289-11.698 3.604-16.834"/></symbol><symbol viewBox="0 0 22 22" id="mail" xmlns="http://www.w3.org/2000/svg"><path d="M4.714 4.714h12.571c.865 0 1.572.707 1.572 1.572v9.428c0 .865-.707 1.572-1.572 1.572H4.714a1.576 1.576 0 01-1.571-1.572V6.286c0-.865.707-1.572 1.571-1.572z"/><path d="M18.857 6.286L11 11.786l-7.857-5.5"/></symbol><symbol viewBox="0 0 22 22" id="map-pin" xmlns="http://www.w3.org/2000/svg"><path d="M18.07 9.429c0 5.5-7.07 10.214-7.07 10.214S3.927 14.929 3.927 9.429a7.071 7.071 0 0114.143 0z"/><path d="M11 11.786a2.357 2.357 0 100-4.715 2.357 2.357 0 000 4.715z"/></symbol><symbol viewBox="0 0 18 18" id="phone" xmlns="http://www.w3.org/2000/svg"><path d="M16.769 12.866v2.357a1.574 1.574 0 01-1.713 1.571 15.55 15.55 0 01-6.78-2.412A15.321 15.321 0 013.56 9.668a15.55 15.55 0 01-2.41-6.812 1.571 1.571 0 011.564-1.713H5.07a1.571 1.571 0 011.57 1.351c.1.755.284 1.495.55 2.208a1.571 1.571 0 01-.353 1.658l-.998.998a12.571 12.571 0 004.714 4.714l.998-.998a1.57 1.57 0 011.658-.353c.712.266 1.453.45 2.207.55a1.57 1.57 0 011.352 1.595z"/></symbol><symbol viewBox="0 0 18 22" id="pinterest" xmlns="http://www.w3.org/2000/svg"><path d="M9.065.714C3.427.714.43 4.327.43 8.267c0 1.827 1.02 4.106 2.655 4.828.248.112.383.064.438-.166.05-.175.264-1.017.368-1.414a.364.364 0 00-.087-.358c-.543-.627-.974-1.77-.974-2.842 0-2.748 2.185-5.416 5.902-5.416 3.214 0 5.463 2.088 5.463 5.075 0 3.375-1.786 5.71-4.107 5.71-1.284 0-2.24-1.008-1.937-2.255.366-1.485 1.085-3.082 1.085-4.153 0-.96-.543-1.755-1.651-1.755-1.308 0-2.368 1.294-2.368 3.033 0 1.104.39 1.85.39 1.85s-1.293 5.225-1.533 6.201c-.407 1.652.055 4.328.095 4.558.024.128.167.167.247.063.127-.167 1.69-2.398 2.129-4.01.16-.588.814-2.97.814-2.97.43.778 1.674 1.43 2.998 1.43 3.94 0 6.786-3.463 6.786-7.76-.014-4.12-3.54-7.202-8.077-7.202z"/></symbol><symbol viewBox="0 0 84 84" id="resev" xmlns="http://www.w3.org/2000/svg"><g clip-path="url(#awclip0)"><path d="M58.569 41.193h-.092V39.03a3.364 3.364 0 00-3.36-3.36h-4.924v-1.564h2.853a1.29 1.29 0 001.29-1.29v-4.141a1.29 1.29 0 00-1.29-1.29h-6.904a1.29 1.29 0 00-1.289 1.29v4.142a1.29 1.29 0 001.29 1.289h1.471v1.619a3.365 3.365 0 00-2.76 3.305v2.163h-4.326v-4.234a6.811 6.811 0 00-3.1-5.707 5.417 5.417 0 001.719-3.958 5.437 5.437 0 00-5.431-5.431 5.438 5.438 0 00-5.432 5.431c0 1.56.662 2.967 1.719 3.959a6.81 6.81 0 00-3.1 5.706v4.234h-1.472A5.437 5.437 0 0020 46.624v9.665a5.437 5.437 0 005.431 5.432H58.57A5.437 5.437 0 0064 56.29v-9.666a5.437 5.437 0 00-5.431-5.431zM47.43 29.963h4.326v1.565H47.43v-1.564zm0 9.067c0-.43.351-.782.782-.782h6.904c.431 0 .782.351.782.782v2.163H47.43V39.03zM30.862 27.294a2.857 2.857 0 012.854-2.853 2.856 2.856 0 012.853 2.853 2.856 2.856 0 01-2.853 2.853 2.856 2.856 0 01-2.854-2.853zm-1.38 9.665a4.238 4.238 0 014.234-4.234c2.334 0 4.233 1.9 4.233 4.234v4.234h-8.467v-4.234zm31.94 19.33a2.856 2.856 0 01-2.853 2.853H25.43a2.856 2.856 0 01-2.853-2.853v-9.665a2.856 2.856 0 012.853-2.853h33.14a2.856 2.856 0 012.853 2.853v9.665z"/><path d="M55.808 46.716H29.574a1.29 1.29 0 000 2.578h26.234a1.29 1.29 0 000-2.578zm-5.524 5.523H36.477a1.289 1.289 0 100 2.578h13.807a1.29 1.29 0 000-2.578z"/></g><path d="M73.088 15.268a41.238 41.238 0 00-3.343-3.455M63.13 6.857A40.809 40.809 0 0042 1C19.356 1 1 19.356 1 42s18.356 41 41 41 41-18.356 41-41c0-6-1.289-11.698-3.604-16.834"/><defs><clipPath id="awclip0"><path transform="translate(20 22)" d="M0 0h44v40H0z"/></clipPath></defs></symbol><symbol viewBox="0 0 24 24" id="search" xmlns="http://www.w3.org/2000/svg"><path d="M11.143 18a6.857 6.857 0 100-13.714 6.857 6.857 0 000 13.714zm8.571 1.714l-3.728-3.728"/></symbol><symbol viewBox="0 0 84 84" id="tabel" xmlns="http://www.w3.org/2000/svg"><g clip-path="url(#ayclip0)"><path d="M58.569 41.193h-.092V39.03a3.364 3.364 0 00-3.36-3.36h-4.924v-1.564h2.853a1.29 1.29 0 001.29-1.29v-4.141a1.29 1.29 0 00-1.29-1.29h-6.904a1.29 1.29 0 00-1.289 1.29v4.142a1.29 1.29 0 001.29 1.289h1.471v1.619a3.365 3.365 0 00-2.76 3.305v2.163h-4.326v-4.234a6.811 6.811 0 00-3.1-5.707 5.417 5.417 0 001.719-3.958 5.437 5.437 0 00-5.431-5.431 5.438 5.438 0 00-5.432 5.431c0 1.56.662 2.967 1.719 3.959a6.81 6.81 0 00-3.1 5.706v4.234h-1.472A5.437 5.437 0 0020 46.624v9.665a5.437 5.437 0 005.431 5.432H58.57A5.437 5.437 0 0064 56.29v-9.666a5.437 5.437 0 00-5.431-5.431zM47.43 29.963h4.326v1.565H47.43v-1.564zm0 9.067c0-.43.351-.782.782-.782h6.904c.431 0 .782.351.782.782v2.163H47.43V39.03zM30.862 27.294a2.857 2.857 0 012.854-2.853 2.856 2.856 0 012.853 2.853 2.856 2.856 0 01-2.853 2.853 2.856 2.856 0 01-2.854-2.853zm-1.38 9.665a4.238 4.238 0 014.234-4.234c2.334 0 4.233 1.9 4.233 4.234v4.234h-8.467v-4.234zm31.94 19.33a2.856 2.856 0 01-2.853 2.853H25.43a2.856 2.856 0 01-2.853-2.853v-9.665a2.856 2.856 0 012.853-2.853h33.14a2.856 2.856 0 012.853 2.853v9.665z"/><path d="M55.808 46.716H29.574a1.29 1.29 0 000 2.578h26.234a1.29 1.29 0 000-2.578zm-5.524 5.523H36.477a1.289 1.289 0 100 2.578h13.807a1.29 1.29 0 000-2.578z"/></g><path d="M73.088 15.268a41.238 41.238 0 00-3.343-3.455M63.13 6.857A40.809 40.809 0 0042 1C19.356 1 1 19.356 1 42s18.356 41 41 41 41-18.356 41-41c0-6-1.289-11.698-3.604-16.834"/><defs><clipPath id="ayclip0"><path transform="translate(20 22)" d="M0 0h44v40H0z"/></clipPath></defs></symbol><symbol viewBox="0 0 26 26" id="trash" xmlns="http://www.w3.org/2000/svg"><path d="M4.643 7.429h16.714m-12.071 0V5.57a1.857 1.857 0 011.857-1.857h3.714a1.857 1.857 0 011.857 1.857v1.86m2.786 0v13a1.858 1.858 0 01-1.857 1.857H8.357A1.857 1.857 0 016.5 20.429v-13h13zm-8.357 4.641v5.572m3.714-5.572v5.572"/></symbol><symbol viewBox="0 0 24 24" id="user" xmlns="http://www.w3.org/2000/svg"><path d="M18.857 19.714V18a3.429 3.429 0 00-3.428-3.429H8.572A3.429 3.429 0 005.143 18v1.714M12 11.143a3.429 3.429 0 100-6.857 3.429 3.429 0 000 6.857z"/></symbol><symbol viewBox="0 0 24 24" id="wash-at-50" xmlns="http://www.w3.org/2000/svg"><path d="M23.5 5.046c-.378-.299-.81-.085-.81.156s.175.43.309.564a.43.43 0 01.128.308v.437c0 .24-.195.425-.436.425h-.228c-.125 0-.253.168-.287.375l-.06.376-.3 2.248-1.155-.948c-.7-.575-1.854-.657-2.628-.187l-1.39.845c-.476.29-1.315.297-1.795.016l-1.514-.884c-.764-.446-1.938-.409-2.673.087l-1.095.74c-.453.305-1.262.327-1.73.044l-1.41-.852c-.769-.462-1.932-.406-2.65.132l-1.39 1.038-.303-2.279-.038-.37c-.021-.205-.194-.375-.387-.374l-.349.004a.436.436 0 01-.436-.436v-.437c0-.12.049-.23.128-.308.134-.134.308-.323.308-.564 0-.242-.43-.455-.809-.156-.304.24-.5.612-.5 1.028v.436a1.31 1.31 0 001.309 1.31c.007 0 .18 1.26.4 2.899a.424.424 0 00.015.102c.411 3.051.982 7.333.982 7.333.071.53.546.946 1.08.946h16.626c.535 0 1.009-.416 1.08-.946L22.883 7.8A1.307 1.307 0 0024 6.51v-.436c0-.416-.196-.788-.5-1.028zm-2.767 13.007a.349.349 0 01-.322.284H3.786a.35.35 0 01-.323-.284l-.946-7.097 1.78-1.33c.433-.323 1.215-.361 1.677-.083l1.41.852c.76.459 1.934.428 2.67-.068l1.094-.74c.456-.306 1.27-.333 1.745-.057l1.513.884c.757.443 1.938.433 2.689-.023l1.39-.846c.461-.279 1.203-.227 1.621.116l1.573 1.29-.946 7.102z"/><path d="M11.127 13.885a1.193 1.193 0 00-.393-.217 1.423 1.423 0 00-.445-.073 1.22 1.22 0 00-.385.055 1.57 1.57 0 00-.311.144l.026-.477h1.733v-.968H8.708l-.104 1.905.738.367c.087-.07.174-.125.262-.167a.675.675 0 01.299-.064c.129 0 .232.03.311.094a.307.307 0 01.118.255v.01a.315.315 0 01-.121.25.523.523 0 01-.34.098c-.15 0-.3-.034-.448-.104a2.309 2.309 0 01-.458-.294l-.676.788c.203.187.43.334.683.443.253.109.558.163.914.163.234 0 .45-.03.649-.09a1.55 1.55 0 00.516-.258 1.21 1.21 0 00.34-.416c.082-.165.123-.353.123-.566v-.01c0-.193-.036-.361-.107-.506a1.1 1.1 0 00-.28-.362zm3.939-1.005a1.684 1.684 0 00-.555-.416 1.715 1.715 0 00-.741-.154 1.7 1.7 0 00-.746.157 1.702 1.702 0 00-.555.419 1.821 1.821 0 00-.349.61 2.19 2.19 0 00-.12.724v.01c0 .252.04.493.118.723a1.8 1.8 0 00.346.608c.152.175.335.314.553.417.216.102.463.154.743.154a1.67 1.67 0 001.3-.576c.153-.174.269-.377.35-.61.08-.231.12-.474.12-.725v-.01c0-.251-.04-.493-.12-.723a1.815 1.815 0 00-.344-.608zm-.752 1.351c0 .251-.049.454-.147.608a.45.45 0 01-.625.167.58.58 0 01-.175-.172.847.847 0 01-.113-.267 1.422 1.422 0 01-.04-.346v-.01c0-.251.05-.454.147-.608a.45.45 0 01.398-.23c.083 0 .16.02.228.063s.126.1.175.173a.875.875 0 01.113.267c.026.105.039.22.039.345v.01z"/></symbol><symbol viewBox="0 0 24 24" id="washing-option" xmlns="http://www.w3.org/2000/svg"><g clip-path="url(#bcclip0)"><path d="M23.916 5.9a.464.464 0 00-.647-.113l-5.968 4.17-4.4-8.06c-.23-.422-.58-.665-.962-.665-.383 0-.735.244-.964.67L6.651 9.914.73 5.786a.466.466 0 00-.532.762l6.008 4.19-5.569 10.32c-.225.418-.24.849-.04 1.183.2.335.586.526 1.06.526h20.688c.457 0 .828-.181 1.032-.494.028-.024.06-.04.082-.07a.457.457 0 00.067-.371 1.323 1.323 0 00-.167-.772l-5.611-10.282 6.053-4.23a.465.465 0 00.114-.647zM11.792 2.344c.072-.133.136-.177.14-.182.017.005.082.048.154.181l4.449 8.15-4.523 3.161-4.594-3.203 4.374-8.107zm-.591 11.877l-9.34 6.526 5.113-9.474L11.2 14.22zm.812.566l10.114 7.053H1.92l10.093-7.053zm10.084 5.9l-9.273-6.467 4.158-2.906 5.115 9.372z"/></g><defs><clipPath id="bcclip0"><path d="M0 0h24v24H0z"/></clipPath></defs></symbol><symbol viewBox="0 0 24 24" id="washing-symbol" xmlns="http://www.w3.org/2000/svg"><g clip-path="url(#bdclip0)"><path d="M22.253 20.608V4.068l1.595-1.456a.464.464 0 10-.625-.686l-1.07.976a1.583 1.583 0 00-1.487-1.049H3.334c-.686 0-1.266.44-1.487 1.05l-1.07-.977a.465.465 0 00-.626.686l1.596 1.46v16.537c0 .875.711 1.587 1.587 1.587h17.332a1.59 1.59 0 001.587-1.588zm-.93 0a.638.638 0 01-.01.098l-2.211-2.023a9.73 9.73 0 002.22-3.814v5.74h.001zm-18.646 0V14.87a9.738 9.738 0 002.203 3.794l-2.198 2.005c-.002-.02-.006-.04-.006-.06zm10-7.802l6.483-5.915a8.766 8.766 0 01-.743 11.166l-5.74-5.25zm5.07 5.896a8.776 8.776 0 01-11.513-.018l5.753-5.249 5.76 5.267zm-5.759-6.525L5.42 6.17A8.793 8.793 0 0112 3.203c2.615 0 4.96 1.15 6.577 2.962l-6.589 6.012zm-.69.63l-5.733 5.23a8.781 8.781 0 01-2.386-6.013 8.76 8.76 0 011.658-5.127l6.462 5.91zm-5.752 6.505a9.745 9.745 0 003.371 1.954H3.404l2.142-1.954zm12.888.019l2.116 1.935h-5.466a9.738 9.738 0 003.35-1.935zm1.414-13.068l1.477-1.347v4.263a9.721 9.721 0 00-1.477-2.916zm1.476-2.823v.219L19.262 5.54a9.76 9.76 0 00-4.178-2.758h5.583a.657.657 0 01.657.657zm-18.648 0c0-.363.295-.658.658-.658h5.584a9.767 9.767 0 00-4.182 2.762l-2.06-1.883v-.22zM4.15 6.268a9.693 9.693 0 00-1.473 2.91V4.922L4.15 6.268z"/></g><defs><clipPath id="bdclip0"><path d="M0 0h24v24H0z"/></clipPath></defs></symbol><symbol viewBox="0 0 20 19" id="wish-list" xmlns="http://www.w3.org/2000/svg"><path d="M17.25 2.65a4.504 4.504 0 00-1.464-1.01 4.39 4.39 0 00-3.453 0 4.505 4.505 0 00-1.464 1.01l-.87.897-.868-.897a4.442 4.442 0 00-3.19-1.364c-1.197 0-2.345.49-3.19 1.364a4.732 4.732 0 00-1.322 3.292A4.73 4.73 0 002.75 9.233l.87.897L10 16.715l6.38-6.583.87-.898c.419-.432.751-.945.978-1.51a4.784 4.784 0 000-3.563 4.666 4.666 0 00-.978-1.51z"/></symbol><symbol viewBox="0 0 20 14" id="youtube" xmlns="http://www.w3.org/2000/svg"><path d="M19.46 2.256a2.416 2.416 0 00-1.7-1.7C16.25.143 10.214.143 10.214.143s-6.037 0-7.546.397c-.81.222-1.477.89-1.7 1.716C.571 3.765.571 6.894.571 6.894s0 3.146.397 4.639a2.416 2.416 0 001.7 1.7c1.525.413 7.546.413 7.546.413s6.037 0 7.546-.397a2.416 2.416 0 001.7-1.7c.397-1.51.397-4.639.397-4.639s.016-3.145-.397-4.654zM8.292 9.786V4.003l5.02 2.891-5.02 2.892z"/></symbol></svg>