<svg width="24" height="24" viewBox="0 0 24 24" fill="none" xmlns="http://www.w3.org/2000/svg">
<path d="M6.85707 3.42859L4.28564 6.85716V18.8572C4.28564 19.3118 4.46626 19.7479 4.78775 20.0693C5.10924 20.3908 5.54527 20.5714 5.99993 20.5714H17.9999C18.4546 20.5714 18.8906 20.3908 19.2121 20.0693C19.5336 19.7479 19.7142 19.3118 19.7142 18.8572V6.85716L17.1428 3.42859H6.85707Z" stroke-width="2" stroke-linecap="round" stroke-linejoin="round"/>
<path d="M4.28564 6.85712H19.7142" stroke-width="2" stroke-linecap="round" stroke-linejoin="round"/>
<path d="M15.4284 10.2857C15.4284 11.195 15.0672 12.0671 14.4242 12.7101C13.7812 13.3531 12.9092 13.7143 11.9999 13.7143C11.0905 13.7143 10.2185 13.3531 9.57549 12.7101C8.93251 12.0671 8.57129 11.195 8.57129 10.2857" stroke="#333333" stroke-width="2" stroke-linejoin="round"/>
</svg>
