<svg width="84" height="84" viewBox="0 0 84 84" fill="none" xmlns="http://www.w3.org/2000/svg">
<g clip-path="url(#clip0)">
<path d="M56.8051 47.4832C52.7737 47.4832 49.4941 50.7628 49.4941 54.7941C49.4941 58.8254 52.7737 62.105 56.8051 62.105C60.8371 62.105 64.116 58.8254 64.116 54.7941C64.116 50.7628 60.8364 47.4832 56.8051 47.4832ZM56.8051 58.4496C54.7891 58.4496 53.1496 56.8101 53.1496 54.7941C53.1496 52.7781 54.7891 51.1386 56.8051 51.1386C58.821 51.1386 60.4606 52.7781 60.4606 54.7941C60.4606 56.8102 58.821 58.4496 56.8051 58.4496Z" fill="#F08283"/>
<path d="M31.8266 47.4832C27.7952 47.4832 24.5156 50.7628 24.5156 54.7941C24.5156 58.8254 27.7952 62.105 31.8266 62.105C35.8579 62.105 39.1375 58.8254 39.1375 54.7941C39.1375 50.7628 35.8579 47.4832 31.8266 47.4832ZM31.8266 58.4496C29.8106 58.4496 28.1711 56.8101 28.1711 54.7941C28.1711 52.7781 29.8106 51.1386 31.8266 51.1386C33.842 51.1386 35.482 52.7781 35.482 54.7941C35.482 56.8102 33.8425 58.4496 31.8266 58.4496Z" fill="#F08283"/>
<path d="M61.7282 26.557C61.4175 25.9399 60.7857 25.5505 60.0948 25.5505H50.4688V29.206H58.9677L63.9446 39.105L67.2114 37.4624L61.7282 26.557Z" fill="#F08283"/>
<path d="M51.322 53.0273H37.4922V56.6828H51.322V53.0273Z" fill="#F08283"/>
<path d="M26.3415 53.0273H20.0054C18.9959 53.0273 18.1777 53.8456 18.1777 54.855C18.1777 55.8646 18.996 56.6827 20.0054 56.6827H26.3416C27.3511 56.6827 28.1693 55.8645 28.1693 54.855C28.1693 53.8455 27.351 53.0273 26.3415 53.0273Z" fill="#F08283"/>
<path d="M70.6153 41.8538L67.0202 37.2236C66.6748 36.7776 66.1417 36.5168 65.5769 36.5168H52.2953V23.7227C52.2953 22.7131 51.4771 21.895 50.4677 21.895H20.0054C18.9959 21.895 18.1777 22.7132 18.1777 23.7227C18.1777 24.7321 18.996 25.5504 20.0054 25.5504H48.6399V38.3445C48.6399 39.354 49.4581 40.1722 50.4675 40.1722H64.6818L67.3436 43.601V53.0272H62.2869C61.2773 53.0272 60.4592 53.8454 60.4592 54.8549C60.4592 55.8644 61.2774 56.6826 62.2869 56.6826H69.1713C70.1809 56.6826 70.999 55.8643 70.9991 54.8549V42.9748C70.9991 42.5691 70.8638 42.1743 70.6153 41.8538Z" fill="#F08283"/>
<path d="M26.2197 43.7668H17.8121C16.8025 43.7668 15.9844 44.5851 15.9844 45.5945C15.9844 46.6041 16.8026 47.4222 17.8121 47.4222H26.2196C27.2291 47.4222 28.0472 46.604 28.0472 45.5945C28.0474 44.5851 27.2291 43.7668 26.2197 43.7668Z" fill="#F08283"/>
<path d="M30.4244 36.5776H14.8277C13.8182 36.5776 13 37.3959 13 38.4054C13 39.415 13.8182 40.2331 14.8277 40.2331H30.4244C31.4339 40.2331 32.252 39.4149 32.252 38.4054C32.252 37.396 31.4339 36.5776 30.4244 36.5776Z" fill="#F08283"/>
<path d="M33.4087 29.3887H17.8121C16.8025 29.3887 15.9844 30.2069 15.9844 31.2164C15.9844 32.2259 16.8026 33.044 17.8121 33.044H33.4087C34.4183 33.044 35.2364 32.2258 35.2364 31.2164C35.2365 30.2069 34.4183 29.3887 33.4087 29.3887Z" fill="#F08283"/>
</g>
<path d="M73.0879 15.268C72.0416 14.0522 70.9251 12.8986 69.7448 11.8132M63.1301 6.85714C56.9594 3.13891 49.7295 1 42 1C19.3563 1 1 19.3563 1 42C1 64.6437 19.3563 83 42 83C64.6437 83 83 64.6437 83 42C83 36.0003 81.7113 30.3016 79.3956 25.1656" stroke="#F08283" stroke-width="2" stroke-linecap="round"/>
<defs>
<clipPath id="clip0">
<rect width="58" height="58" fill="white" transform="translate(13 13)"/>
</clipPath>
</defs>
</svg>
