<svg width="84" height="84" viewBox="0 0 84 84" fill="none" xmlns="http://www.w3.org/2000/svg">
<g clip-path="url(#clip0)">
<path d="M65.3359 24.7334H18.6641C15.5409 24.7334 13 27.2588 13 30.363V59.6369C13 62.7411 15.5409 65.2665 18.6641 65.2665H65.3359C68.4591 65.2665 71 62.7411 71 59.6369V30.363C71 27.2588 68.4591 24.7334 65.3359 24.7334ZM68.7344 59.6369C68.7344 61.4995 67.2099 63.0146 65.3359 63.0146H18.6641C16.7901 63.0146 15.2656 61.4995 15.2656 59.6369V57.3851H68.7344V59.6369ZM68.7344 55.1332H15.2656V48.3777H68.7344V55.1332ZM68.7344 46.1259H15.2656V30.363C15.2656 28.5004 16.7901 26.9852 18.6641 26.9852H65.3359C67.2099 26.9852 68.7344 28.5004 68.7344 30.363V46.1259Z" fill="#F08283"/>
<path d="M42.6797 32.84H59.6719C60.2962 32.84 60.8047 32.3346 60.8047 31.7141C60.8047 31.0935 60.2962 30.5881 59.6719 30.5881H42.6797C42.0553 30.5881 41.5469 31.0935 41.5469 31.7141C41.5469 32.3346 42.0553 32.84 42.6797 32.84Z" fill="#F08283"/>
<path d="M64.2031 32.84C64.8275 32.84 65.3359 32.3346 65.3359 31.7141C65.3359 31.0935 64.8275 30.5881 64.2031 30.5881C63.5788 30.5881 63.0703 31.0935 63.0703 31.7141C63.0703 32.3346 63.5788 32.84 64.2031 32.84Z" fill="#F08283"/>
<path d="M65.3359 35.0918H58.5391C57.9134 35.0918 57.4062 35.5958 57.4062 36.2177C57.4062 36.8396 57.9134 37.3436 58.5391 37.3436H65.3359C65.9616 37.3436 66.4688 36.8396 66.4688 36.2177C66.4688 35.5958 65.9616 35.0918 65.3359 35.0918Z" fill="#F08283"/>
<path d="M54.0078 35.0918H42.6797C42.054 35.0918 41.5469 35.5958 41.5469 36.2177C41.5469 36.8396 42.054 37.3436 42.6797 37.3436H54.0078C54.6335 37.3436 55.1406 36.8396 55.1406 36.2177C55.1406 35.5958 54.6335 35.0918 54.0078 35.0918Z" fill="#F08283"/>
<path d="M33.6734 29.5072C33.1978 29.103 32.4827 29.1588 32.0764 29.6316L21.428 42.0167C21.0213 42.4891 21.0775 43.2003 21.5532 43.604C21.7665 43.7852 22.0285 43.8741 22.2887 43.8741C22.6086 43.8741 22.9263 43.7404 23.1502 43.4796L33.7987 31.0944C34.2053 30.6217 34.1491 29.9109 33.6734 29.5072Z" fill="#F08283"/>
<path d="M25.4609 32.6148C25.4609 30.7522 23.9365 29.2371 22.0625 29.2371C20.1885 29.2371 18.6641 30.7522 18.6641 32.6148C18.6641 34.4774 20.1885 35.9926 22.0625 35.9926C23.9365 35.9926 25.4609 34.4774 25.4609 32.6148ZM20.9297 32.6148C20.9297 31.9938 21.4377 31.4889 22.0625 31.4889C22.6873 31.4889 23.1953 31.9938 23.1953 32.6148C23.1953 33.2358 22.6873 33.7407 22.0625 33.7407C21.4377 33.7407 20.9297 33.2358 20.9297 32.6148Z" fill="#F08283"/>
<path d="M33.2773 37.1187C31.4033 37.1187 29.8789 38.6338 29.8789 40.4964C29.8789 42.359 31.4033 43.8742 33.2773 43.8742C35.1514 43.8742 36.6758 42.359 36.6758 40.4964C36.6758 38.6338 35.1514 37.1187 33.2773 37.1187ZM33.2773 41.6223C32.6525 41.6223 32.1445 41.1174 32.1445 40.4964C32.1445 39.8754 32.6525 39.3705 33.2773 39.3705C33.9022 39.3705 34.4102 39.8754 34.4102 40.4964C34.4102 41.1174 33.9022 41.6223 33.2773 41.6223Z" fill="#F08283"/>
</g>
<path d="M73.0879 15.268C72.0416 14.0522 70.9251 12.8986 69.7448 11.8132M63.1301 6.85714C56.9594 3.13891 49.7295 1 42 1C19.3563 1 1 19.3563 1 42C1 64.6437 19.3563 83 42 83C64.6437 83 83 64.6437 83 42C83 36.0003 81.7113 30.3016 79.3956 25.1656" stroke="#F08283" stroke-width="2" stroke-linecap="round"/>
<defs>
<clipPath id="clip0">
<rect width="58" height="40" fill="white" transform="translate(13 25)"/>
</clipPath>
</defs>
</svg>
