<svg width="84" height="84" viewBox="0 0 84 84" fill="none" xmlns="http://www.w3.org/2000/svg">
<path d="M38.7149 36.2012L38.7149 36.2008C38.7149 35.5894 39.2065 35.0897 39.8179 35.0897C40.4292 35.0897 40.9207 35.5893 40.9208 36.2006M38.7149 36.2012L40.6708 36.2008M38.7149 36.2012C38.7175 37.9046 39.805 39.4065 41.3979 39.9333V40.6092C41.3979 41.2206 41.8895 41.7203 42.5008 41.7203C43.1122 41.7203 43.6038 41.2206 43.6038 40.6092V39.9974C45.4479 39.5061 46.6765 37.7278 46.4787 35.7969L46.4787 35.7969M38.7149 36.2012L46.4787 35.7969M40.9208 36.2006C40.9208 36.2007 40.9208 36.2008 40.9208 36.2008H40.6708M40.9208 36.2006C40.9208 36.2005 40.9208 36.2005 40.9208 36.2004L40.6708 36.2008M40.9208 36.2006C40.9224 37.0579 41.5511 37.777 42.3852 37.8901M40.6708 36.2008C40.6725 37.1932 41.4093 38.0274 42.3859 38.1422M42.3852 37.8901C42.373 37.8915 42.3608 37.8932 42.3486 37.895L42.3859 38.1422M42.3852 37.8901C42.3951 37.8915 42.4051 37.8927 42.4151 37.8939L42.3859 38.1422M42.3852 37.8901C42.49 37.8781 42.5951 37.8822 42.6975 37.9012C43.6002 37.8529 44.3098 37.0897 44.2929 36.1684L44.2929 36.1683C44.2761 35.2374 43.5244 34.4956 42.6075 34.4956L42.3859 38.1422M46.4787 35.7969C46.2734 33.7972 44.6039 32.2741 42.6075 32.2737H42.6075M46.4787 35.7969L42.6075 32.2737M42.6075 32.2737C41.6783 32.2737 40.9208 31.5124 40.9208 30.5684C40.9208 29.6244 41.6783 28.8632 42.6075 28.8632C43.5367 28.8632 44.2941 29.6244 44.2941 30.5684C44.2941 31.1798 44.7857 31.6796 45.397 31.6796C46.0084 31.6796 46.5 31.1798 46.5 30.5684L46.5 30.5681M42.6075 32.2737L46.5 30.5681M46.5 30.5681C46.4974 28.7805 45.3026 27.2271 43.6038 26.7717M46.5 30.5681L43.6038 26.7717M43.6038 26.7717V26.1849C43.6038 25.5735 43.1122 25.0737 42.5008 25.0737C41.8895 25.0737 41.3979 25.5735 41.3979 26.1849V26.8357C39.6215 27.4205 38.4995 29.2066 38.7496 31.0904C39.0082 33.0386 40.6557 34.496 42.6075 34.4956L43.6038 26.7717Z" fill="#F08283" stroke="#F08283" stroke-width="0.5"/>
<path d="M29.9902 33.4504V33.4507C29.9902 40.4833 35.6374 46.1882 42.6088 46.1882C49.5803 46.1882 55.2274 40.4833 55.2274 33.4507C55.2274 26.4181 49.5803 20.7131 42.6088 20.7131L42.6086 20.7131C35.6407 20.7209 29.9983 26.4214 29.9902 33.4504ZM42.609 22.9354C48.3576 22.9355 53.0215 27.6409 53.0215 33.4507C53.0215 39.2605 48.3575 43.9659 42.6088 43.9659C36.8602 43.9659 32.1962 39.2606 32.1961 33.4509C32.2027 27.6438 36.8631 22.9421 42.609 22.9354Z" fill="#F08283" stroke="#F08283" stroke-width="0.5"/>
<path d="M44.5177 62.2498C46.1948 62.2507 47.8523 61.8858 49.3766 61.1794C49.4248 61.1572 49.4711 61.1314 49.5149 61.1025C49.5151 61.1023 49.5153 61.1022 49.5154 61.1021L64.7279 51.1676L64.728 51.1676C65.2177 50.8476 65.3745 50.2002 65.089 49.6894C63.8951 47.5507 61.2459 46.7336 59.0703 47.8369L52.6029 50.922C51.6108 49.2316 49.8252 48.164 47.8667 48.1082L47.8665 48.1081L41.6987 47.937C41.6986 47.937 41.6986 47.937 41.6985 47.937C40.7599 47.9099 39.8387 47.6699 39.004 47.2345C39.0039 47.2345 39.0038 47.2345 39.0038 47.2344L38.377 46.9065C38.3769 46.9064 38.3768 46.9064 38.3767 46.9063C35.2154 45.2428 31.4704 45.1834 28.2677 46.7266L28.2955 45.7099V45.7099C28.3121 45.0987 27.8346 44.5854 27.2233 44.5685C27.2233 44.5685 27.2233 44.5685 27.2233 44.5685L20.4597 44.3806L20.4596 44.3806C19.8483 44.3636 19.3436 44.8495 19.327 45.4608C19.327 45.4608 19.327 45.4608 19.327 45.4609L18.9184 60.446L18.9184 60.4461C18.9018 61.0572 19.3792 61.5705 19.9906 61.5875L26.7542 61.7754L26.7542 61.7755H26.7611H26.7845C27.3842 61.7755 27.8712 61.2943 27.8873 60.6946L27.9029 60.1222L29.533 59.241L29.5334 59.2408C30.1657 58.8973 30.9045 58.8157 31.5948 59.013L31.5954 59.0131L42.0849 61.9854C42.0854 61.9856 42.086 61.9858 42.0866 61.986C42.1135 61.9939 42.1388 61.9996 42.1569 62.0037L42.16 62.0043C42.9355 62.1681 43.7258 62.2502 44.5177 62.2498ZM44.5177 62.2498C44.5177 62.2498 44.5177 62.2498 44.5176 62.2498L44.5177 61.9998L44.5179 62.2498C44.5178 62.2498 44.5178 62.2498 44.5177 62.2498ZM53.3992 54.0066C53.4083 53.6793 53.3897 53.3516 53.3432 53.0276L60.025 49.8401C60.0362 49.835 60.0462 49.83 60.0516 49.8272L60.0526 49.8267L60.0537 49.8262C60.8344 49.4273 61.7603 49.5015 62.4642 49.9978L48.3827 59.1945C46.5851 60.0093 44.5796 60.234 42.6488 59.8377L32.1936 56.8746C30.9528 56.5207 29.6246 56.6674 28.4898 57.2835L27.9728 57.5631L28.1978 49.3068C30.9511 47.5134 34.4489 47.3469 37.3599 48.8783L37.3604 48.8785L37.9881 49.2069L37.9884 49.2071C39.1188 49.7964 40.3657 50.1214 41.6375 50.1587L41.6379 50.1587L47.8061 50.3298L53.1493 53.9997M53.3992 54.0066L53.1493 53.9997M53.3992 54.0066C53.3992 54.0066 53.3992 54.0065 53.3992 54.0064L53.1493 53.9997M53.3992 54.0066C53.383 54.6057 52.8966 55.0867 52.2974 55.0873H52.2972H52.2734H52.2665L52.2665 55.0872L42.1269 54.8055M53.1493 53.9997C53.1368 54.4656 52.759 54.8369 52.2972 54.8373H52.2734L42.1338 54.5556M42.1269 54.8055L42.1338 54.5556M42.1269 54.8055L42.1269 54.8055L42.1338 54.5556M42.1269 54.8055L41.3046 53.6709C41.2917 54.1464 41.6632 54.5425 42.1338 54.5556M21.1538 59.3967L21.5017 46.6327L26.06 46.7593L25.7122 59.5236L21.1538 59.3967Z" fill="#F08283" stroke="#F08283" stroke-width="0.5"/>
<path d="M73.0879 15.268C72.0416 14.0522 70.9251 12.8986 69.7448 11.8132M63.1301 6.85714C56.9594 3.13891 49.7295 1 42 1C19.3563 1 1 19.3563 1 42C1 64.6437 19.3563 83 42 83C64.6437 83 83 64.6437 83 42C83 36.0003 81.7113 30.3016 79.3956 25.1656" stroke="#F08283" stroke-width="2" stroke-linecap="round"/>
</svg>
