<svg width="13" height="22" viewBox="0 0 13 22" fill="none" xmlns="http://www.w3.org/2000/svg">
<path d="M12.4869 0.718636L9.37464 0.714355C5.87816 0.714355 3.61858 2.70145 3.61858 5.77701V8.11123H0.489368C0.218967 8.11123 0 8.29914 0 8.53091V11.9129C0 12.1447 0.219217 12.3324 0.489368 12.3324H3.61858V20.8663C3.61858 21.0981 3.83754 21.2858 4.10794 21.2858H8.19067C8.46107 21.2858 8.68004 21.0979 8.68004 20.8663V12.3324H12.3388C12.6092 12.3324 12.8282 12.1447 12.8282 11.9129L12.8297 8.53091C12.8297 8.41962 12.778 8.31305 12.6864 8.23429C12.5947 8.15554 12.4699 8.11123 12.3401 8.11123H8.68004V6.13248C8.68004 5.18142 8.94445 4.69861 10.3898 4.69861L12.4864 4.69797C12.7565 4.69797 12.9755 4.51006 12.9755 4.2785V1.1381C12.9755 0.906752 12.7568 0.719064 12.4869 0.718636Z"/>
</svg>
