<svg width="25" height="25" viewBox="0 0 25 25" fill="none" xmlns="http://www.w3.org/2000/svg">
<path d="M5.54053 15.1078L4.67031 18.3564L1.4897 18.4237C0.53916 16.6607 0 14.6436 0 12.5C0 10.4272 0.504102 8.47251 1.39766 6.75137H1.39834L4.22998 7.27051L5.47041 10.0852C5.21079 10.842 5.06929 11.6545 5.06929 12.5C5.06938 13.4176 5.2356 14.2967 5.54053 15.1078Z" fill="#FBBB00"/>
<path d="M24.7802 10.1648C24.9238 10.921 24.9986 11.7019 24.9986 12.5C24.9986 13.3949 24.9045 14.2679 24.7253 15.1099C24.1168 17.9753 22.5268 20.4773 20.3242 22.2479L20.3235 22.2473L16.7569 22.0653L16.2521 18.9142C17.7137 18.057 18.8559 16.7157 19.4575 15.1099H12.7734V10.1648H19.555H24.7802Z" fill="#518EF8"/>
<path d="M20.3234 22.2473L20.3241 22.248C18.182 23.9698 15.4608 25 12.4986 25C7.73828 25 3.59956 22.3393 1.48828 18.4238L5.53911 15.1079C6.59473 17.9251 9.31245 19.9307 12.4986 19.9307C13.8681 19.9307 15.1511 19.5605 16.252 18.9142L20.3234 22.2473Z" fill="#28B446"/>
<path d="M20.4795 2.87773L16.43 6.19297C15.2906 5.48076 13.9438 5.06934 12.5008 5.06934C9.24253 5.06934 6.47398 7.16685 5.47124 10.0852L1.39912 6.75137H1.39844C3.47881 2.74038 7.66973 0 12.5008 0C15.5337 0 18.3146 1.08037 20.4795 2.87773Z" fill="#F14336"/>
</svg>
