<svg width="24" height="24" viewBox="0 0 24 24" fill="none" xmlns="http://www.w3.org/2000/svg">
<g clip-path="url(#clip0)">
<path d="M23.4995 9.30468C23.1212 9.00621 22.6905 9.21915 22.6905 9.46045C22.6905 9.70175 22.8646 9.89069 22.999 10.0247C23.078 10.1036 23.1269 10.2127 23.1269 10.3331V10.7695C23.1269 11.0104 22.9314 11.1945 22.6905 11.1945C22.6905 11.1945 22.5889 11.1945 22.4632 11.1945C22.3371 11.1945 22.2092 11.3629 22.1752 11.5702L22.1154 11.9459L21.8152 14.1935L20.6606 13.2458C19.9607 12.6711 18.8062 12.5886 18.0334 13.0581L16.6423 13.9038C16.6331 13.9103 16.6187 13.9129 16.6091 13.9191C16.6179 12.8068 16.723 11.4611 16.8526 10.8576L17.1149 9.63412L17.224 8.68812C17.2916 8.09556 17.1917 7.25122 16.9949 6.766C16.8142 6.31788 16.4874 5.67252 16.2513 5.29726C16.0301 4.946 15.8189 4.53496 15.767 4.3866C15.7312 4.27664 15.6649 3.67274 15.6649 2.91131V1.65768C15.6649 1.41638 15.4698 1.22133 15.2285 1.22133C14.9864 1.22133 14.7922 1.41638 14.7922 1.65768V2.91218C14.7922 3.37166 14.8227 4.33118 14.9445 4.67503C15.0374 4.93989 15.3071 5.43296 15.5139 5.7624C15.7207 6.0901 16.0292 6.69924 16.1885 7.09457C16.3303 7.44583 16.411 8.14399 16.3604 8.5895L16.2583 9.49274L16.0022 10.6748C15.8538 11.3642 15.7382 12.8496 15.7382 14.0574C15.7382 15.301 15.6932 16.1981 15.6697 16.3216C15.6553 16.3539 15.5925 16.4093 15.5606 16.4206C15.4476 16.4529 15.249 16.4625 15.1653 16.4473L15.1138 16.4381C15.0671 16.4289 14.9528 16.4084 14.8677 16.3835V11.4759C14.8677 11.2346 14.6731 11.0396 14.4313 11.0396C14.19 11.0396 13.995 11.2346 13.995 11.4759V16.5707C13.995 16.5768 13.995 16.5816 13.995 16.5878V17.5482C13.995 17.5534 13.998 17.5573 13.998 17.5617C13.9832 17.6315 13.9666 17.6616 13.9557 17.6716C13.8004 17.7353 13.6215 17.7585 13.5757 17.7537C13.344 17.7153 13.2602 17.6507 13.1349 17.5534C13.1188 17.5407 13.1027 17.5281 13.0865 17.5159V11.4759C13.0865 11.2346 12.8915 11.0396 12.6502 11.0396C12.4089 11.0396 12.2138 11.2346 12.2138 11.4759V17.9483C12.2138 17.954 12.2169 17.9579 12.2169 17.9636C12.2103 17.9889 12.2038 18.0124 12.1977 18.0369C12.1663 18.1682 12.1584 18.1996 12.0903 18.2559C12.0655 18.2664 12.0017 18.2821 11.8076 18.2764C11.77 18.2721 11.6365 18.238 11.5475 18.204C11.5257 18.1835 11.486 18.1032 11.486 18.0207C11.486 17.9753 11.489 17.9391 11.4908 17.9125C11.4951 17.8588 11.4925 17.81 11.4864 17.7633V11.4759C11.4864 11.2346 11.2914 11.0396 11.0501 11.0396C10.8088 11.0396 10.6137 11.2346 10.6137 11.4759V17.5403C10.4785 17.5674 10.2214 17.5735 10.0757 17.553C9.88066 17.5259 9.84052 17.4753 9.79994 17.3994C9.73317 17.258 9.52242 16.2998 9.52242 15.1112V14.8563C9.52242 14.6416 9.52416 14.4361 9.52547 14.2472C9.52853 13.8933 9.5294 13.6206 9.52242 13.3981V8.78499C9.52242 8.54368 9.32737 8.34864 9.08607 8.34864C8.84477 8.34864 8.64972 8.54368 8.64972 8.78499V12.5306C8.50573 12.5616 8.25439 12.5738 8.1741 12.5542C8.11302 12.528 7.93804 12.3709 7.83462 12.1793C7.76394 12.0362 7.63172 11.2185 7.63172 10.1678V7.91316C7.63172 7.71942 7.73819 7.27522 7.88131 6.97109C8.0336 6.64688 8.34515 6.10188 8.57642 5.75542L9.45478 4.401C9.74234 3.94676 9.95877 3.03392 9.95877 2.2773V1.07734C9.95877 0.836039 9.76372 0.640991 9.52242 0.640991C9.28112 0.640991 9.08607 0.836039 9.08607 1.07734V2.2773C9.08607 2.91044 8.8919 3.65877 8.71692 3.93498L7.85033 5.27151C7.59507 5.65375 7.2617 6.23759 7.09153 6.60019C6.90215 7.00381 6.75903 7.56801 6.75903 7.9136V10.1682C6.75903 10.8105 6.82317 12.1427 7.06578 12.5939C7.2281 12.8949 7.55667 13.2706 7.89397 13.3828C8.06763 13.4408 8.36828 13.4543 8.64929 13.4177V14.1067C8.34646 14.1049 8.05585 14.0382 7.84117 13.9086L6.43002 13.0573C5.66205 12.5939 4.49831 12.651 3.78052 13.189L2.39119 14.2271L2.08574 11.9472C2.08574 11.9472 2.06872 11.7814 2.04778 11.5767C2.02684 11.3721 1.85404 11.2019 1.66118 11.2032C1.48664 11.2045 1.3121 11.2067 1.3121 11.2067C1.07123 11.2067 0.87575 11.0117 0.87575 10.7708V10.3345C0.87575 10.214 0.924621 10.1049 1.0036 10.026C1.1345 9.89113 1.30904 9.70175 1.30904 9.46045C1.30904 9.21915 0.878368 9.00621 0.499618 9.30468C0.195484 9.5451 0 9.91644 0 10.3331V10.7695C0 11.4912 0.587324 12.0785 1.30904 12.0785C1.31603 12.0785 1.48838 13.3391 1.70961 14.9781C1.71179 15.013 1.71354 15.047 1.72357 15.0802C2.13549 18.1311 2.70623 22.4139 2.70623 22.4139C2.77735 22.9445 3.2521 23.3599 3.78663 23.3599H20.411C20.9464 23.3599 21.4199 22.9445 21.4919 22.4139L22.883 12.0593C23.5126 11.9655 24.0004 11.4258 24.0004 10.7699V10.3336C23.9996 9.91644 23.8041 9.54467 23.4995 9.30468ZM20.7344 22.3122C20.7147 22.4614 20.5616 22.5958 20.4123 22.5958H3.7875C3.63783 22.5958 3.48424 22.4601 3.4646 22.3122L2.51773 15.2154L4.29803 13.885C4.73001 13.5626 5.51282 13.5237 5.97447 13.803L7.38562 14.6543C7.73601 14.8651 8.18414 14.9741 8.64492 14.9768V15.112V15.4847C8.64492 15.4991 8.65191 15.5117 8.65365 15.527C8.69248 16.5537 8.86615 17.5137 9.02411 17.8087C9.27283 18.2729 9.67209 18.3794 9.95048 18.4178C9.95571 18.4187 10.3153 18.4662 10.6774 18.4117C10.7621 18.6556 10.9248 18.8803 11.1605 18.9842C11.3123 19.0496 11.6265 19.1487 11.8783 19.1487C12.1244 19.1487 12.3953 19.1199 12.6048 18.9554C12.8081 18.7952 12.9107 18.6272 12.9691 18.4798C13.09 18.5352 13.2384 18.5827 13.4277 18.6159C13.6887 18.6587 14.043 18.5779 14.2825 18.4798C14.8092 18.2642 14.8864 17.6935 14.8969 17.2859C14.9165 17.2903 14.9353 17.2938 14.9549 17.2968L15.0003 17.3047C15.2294 17.3492 15.5676 17.3295 15.8058 17.2589C16.1135 17.1677 16.4058 16.8862 16.4987 16.5882C16.5655 16.3718 16.5926 15.5239 16.6022 14.8642C16.7806 14.8079 16.9512 14.7407 17.097 14.6521L18.4881 13.8065C18.9484 13.5272 19.6906 13.5791 20.1087 13.9225L21.6812 15.2137L20.7344 22.3122Z" fill="#7D7D7D"/>
</g>
<defs>
<clipPath id="clip0">
<rect width="24" height="24" fill="white"/>
</clipPath>
</defs>
</svg>
