<svg width="20" height="20" viewBox="0 0 20 20" fill="none" xmlns="http://www.w3.org/2000/svg">
<path d="M15 3.07381V16.5094C15 16.6291 15.0971 16.7262 15.2167 16.7262H18.684C18.8036 16.7262 18.9007 16.6291 18.9007 16.5094V3.07381C18.9007 2.95419 18.8036 2.85711 18.684 2.85711H15.2167C15.0971 2.85711 15 2.95419 15 3.07381ZM18.4673 3.29052V16.2927H15.4334V3.29052H18.4673Z" fill="#EB818B"/>
<path d="M17.167 14.9925C17.167 15.1122 17.2641 15.2092 17.3837 15.2092H18.6839C18.8035 15.2092 18.9006 15.1122 18.9006 14.9925C18.9006 14.8729 18.8035 14.7758 18.6839 14.7758H17.3837C17.2641 14.7758 17.167 14.8729 17.167 14.9925Z" fill="#EB818B"/>
<path d="M17.167 11.5252C17.167 11.6449 17.2641 11.7419 17.3837 11.7419H18.6839C18.8035 11.7419 18.9006 11.6449 18.9006 11.5252C18.9006 11.4056 18.8035 11.3085 18.6839 11.3085H17.3837C17.2641 11.3085 17.167 11.4056 17.167 11.5252Z" fill="#EB818B"/>
<path d="M17.167 8.058C17.167 8.17762 17.2641 8.2747 17.3837 8.2747H18.6839C18.8035 8.2747 18.9006 8.17762 18.9006 8.058C18.9006 7.93838 18.8035 7.8413 18.6839 7.8413H17.3837C17.2641 7.8413 17.167 7.93838 17.167 8.058Z" fill="#EB818B"/>
<path d="M17.167 4.59078C17.167 4.7104 17.2641 4.80748 17.3837 4.80748H18.6839C18.8035 4.80748 18.9006 4.7104 18.9006 4.59078C18.9006 4.47116 18.8035 4.37407 18.6839 4.37407H17.3837C17.2641 4.37407 17.167 4.47116 17.167 4.59078Z" fill="#EB818B"/>
<path d="M16.083 6.32436C16.083 6.44398 16.1801 6.54106 16.2997 6.54106H18.6835C18.8031 6.54106 18.9002 6.44398 18.9002 6.32436C18.9002 6.20474 18.8031 6.10765 18.6835 6.10765H16.2997C16.1801 6.10765 16.083 6.20474 16.083 6.32436Z" fill="#EB818B"/>
<path d="M16.083 9.79166C16.083 9.91128 16.1801 10.0084 16.2997 10.0084H18.6835C18.8031 10.0084 18.9002 9.91128 18.9002 9.79166C18.9002 9.67204 18.8031 9.57495 18.6835 9.57495H16.2997C16.1801 9.57495 16.083 9.67204 16.083 9.79166Z" fill="#EB818B"/>
<path d="M16.083 13.2589C16.083 13.3785 16.1801 13.4756 16.2997 13.4756H18.6835C18.8031 13.4756 18.9002 13.3785 18.9002 13.2589C18.9002 13.1393 18.8031 13.0422 18.6835 13.0422H16.2997C16.1801 13.0422 16.083 13.1393 16.083 13.2589Z" fill="#EB818B"/>
<path d="M14.5046 6.49423C14.5013 6.49059 14.4978 6.48703 14.4942 6.48357L11.4839 3.73368C11.4564 3.70794 11.4243 3.68798 11.3894 3.67485L9.21177 2.87488C9.06322 2.81945 8.89907 2.8983 8.84513 3.05098C8.8354 3.07852 8.82975 3.10738 8.82832 3.13664C8.82832 3.20134 8.73389 4.69246 7.28307 4.71599C5.82366 4.69246 5.73209 3.20134 5.72923 3.13664C5.72079 2.97444 5.58601 2.85 5.42819 2.85867C5.40108 2.86018 5.37429 2.86562 5.34864 2.87488L3.17384 3.68368C3.13893 3.6968 3.10688 3.71676 3.07941 3.7425L0.0890629 6.48357C-0.0255075 6.59544 -0.0301575 6.78161 0.0786897 6.89937C0.0820521 6.903 0.0855217 6.90657 0.0890629 6.91003L2.4699 9.38346V16.1479C2.4699 16.3103 2.59802 16.442 2.75605 16.442H11.8273C11.9853 16.442 12.1134 16.3103 12.1134 16.1479V9.38346L14.4942 6.91003C14.6088 6.79816 14.6135 6.61202 14.5046 6.49423ZM12.1048 8.54526V7.1806C12.1048 7.01818 11.9767 6.8865 11.8187 6.8865C11.6606 6.8865 11.5325 7.01818 11.5325 7.1806V15.8391H3.03077V7.1806C3.03077 7.01818 2.90264 6.8865 2.74461 6.8865C2.58658 6.8865 2.45845 7.01818 2.45845 7.1806V8.5482L0.698579 6.71592L3.4228 4.21013L5.21415 3.54545C5.43606 4.72062 6.54289 5.48843 7.6863 5.26035C8.53072 5.0919 9.19096 4.41332 9.35485 3.54545L11.1462 4.21013L13.8618 6.71592L12.1048 8.54526Z" fill="#EB818B"/>
</svg>
