<svg width="24" height="24" viewBox="0 0 24 24" fill="none" xmlns="http://www.w3.org/2000/svg">
<path d="M22.2295 7.76241C22.1813 6.66937 22.0046 5.91792 21.7514 5.26677C21.4901 4.5756 21.0883 3.95679 20.5618 3.44237C20.0474 2.91995 19.4245 2.514 18.7413 2.25687C18.0864 2.00367 17.3389 1.82691 16.2458 1.77872C15.1446 1.72644 14.795 1.71436 12.0021 1.71436C9.20912 1.71436 8.85953 1.72644 7.76241 1.77464C6.66937 1.82283 5.91792 1.99974 5.26693 2.25279C4.5756 2.514 3.95679 2.91587 3.44237 3.44237C2.91995 3.95679 2.51416 4.57968 2.25687 5.26285C2.00367 5.91792 1.82691 6.66529 1.77872 7.75833C1.72644 8.85953 1.71436 9.20912 1.71436 12.0021C1.71436 14.795 1.72644 15.1446 1.77464 16.2417C1.82283 17.3348 1.99974 18.0862 2.25295 18.7374C2.51416 19.4286 2.91995 20.0474 3.44237 20.5618C3.95679 21.0842 4.57968 21.4902 5.26285 21.7473C5.91792 22.0005 6.66529 22.1772 7.75848 22.2254C8.85545 22.2738 9.20519 22.2857 11.9981 22.2857C14.7911 22.2857 15.1407 22.2738 16.2378 22.2254C17.3309 22.1772 18.0823 22.0005 18.7333 21.7473C20.1158 21.2128 21.2088 20.1197 21.7434 18.7374C21.9964 18.0823 22.1733 17.3348 22.2215 16.2417C22.2697 15.1446 22.2818 14.795 22.2818 12.0021C22.2818 9.20912 22.2777 8.85953 22.2295 7.76241ZM20.377 16.1614C20.3327 17.166 20.164 17.7086 20.0233 18.0702C19.6777 18.9664 18.9664 19.6777 18.0702 20.0234C17.7085 20.164 17.1621 20.3328 16.1614 20.3769C15.0763 20.4252 14.7509 20.4371 12.0062 20.4371C9.26139 20.4371 8.9319 20.4252 7.85079 20.3769C6.84613 20.3328 6.30361 20.164 5.94193 20.0234C5.49596 19.8585 5.09001 19.5973 4.76052 19.2557C4.41893 18.9221 4.15772 18.5203 3.99289 18.0743C3.85224 17.7126 3.68349 17.166 3.63938 16.1655C3.59103 15.0804 3.5791 14.7548 3.5791 12.0101C3.5791 9.26532 3.59103 8.93582 3.63938 7.85487C3.68349 6.85021 3.85224 6.30769 3.99289 5.94602C4.15772 5.49988 4.41893 5.0941 4.7646 4.76444C5.09802 4.42286 5.49988 4.16165 5.94601 3.99698C6.30769 3.85632 6.85429 3.68757 7.85487 3.6433C8.9399 3.59511 9.26547 3.58302 12.0101 3.58302C14.7589 3.58302 15.0843 3.59511 16.1654 3.6433C17.1701 3.68757 17.7126 3.85632 18.0743 3.99698C18.5203 4.16165 18.9262 4.42286 19.2557 4.76444C19.5973 5.09802 19.8585 5.49988 20.0233 5.94602C20.164 6.30769 20.3327 6.85414 20.377 7.85487C20.4252 8.93991 20.4373 9.26532 20.4373 12.0101C20.4373 14.7548 20.4252 15.0763 20.377 16.1614Z"/>
<path d="M12.0013 6.71753C9.08387 6.71753 6.7168 9.08445 6.7168 12.002C6.7168 14.9196 9.08387 17.2866 12.0013 17.2866C14.9189 17.2866 17.2858 14.9196 17.2858 12.002C17.2858 9.08445 14.9189 6.71753 12.0013 6.71753ZM12.0013 15.43C10.1086 15.43 8.57338 13.8949 8.57338 12.002C8.57338 10.1092 10.1086 8.57411 12.0013 8.57411C13.8942 8.57411 15.4292 10.1092 15.4292 12.002C15.4292 13.8949 13.8942 15.43 12.0013 15.43Z"/>
<path d="M18.7293 6.5086C18.7293 7.18988 18.1769 7.74229 17.4954 7.74229C16.8141 7.74229 16.2617 7.18988 16.2617 6.5086C16.2617 5.82715 16.8141 5.2749 17.4954 5.2749C18.1769 5.2749 18.7293 5.82715 18.7293 6.5086Z"/>
</svg>
