<svg width="24" height="24" viewBox="0 0 24 24" fill="none" xmlns="http://www.w3.org/2000/svg">
<path d="M23.6595 10.7128L21.7858 6.47802C21.552 5.94576 20.944 5.54253 20.362 5.5273L8.61156 3.88796L8.54928 3.88348C7.68414 3.88348 6.98029 4.58689 6.98029 5.45203V5.97847C6.98029 6.83062 7.66308 7.5264 8.51075 7.54701L18.7612 9.18456L18.832 9.19038C19.0569 9.19038 19.3459 9.38931 19.4261 9.59943L19.9704 11.0291C19.9879 11.0757 19.9879 11.1017 19.9906 11.1057C19.9821 11.1102 19.9579 11.1196 19.9077 11.1196H17.5175V10.6554C17.5175 10.4077 17.3172 10.2074 17.0694 10.2074H12.6102C12.3625 10.2074 12.1622 10.4077 12.1622 10.6554V11.1196H7.54435C3.38441 11.1196 0 14.5045 0 18.6644C0 18.8436 0.0062724 19.0219 0.0183692 19.1967C0.0533154 19.7101 0.600806 20.1129 1.26478 20.1138L22.8064 20.1169C23.4646 20.1169 24 19.5811 24 18.9225V12.3243C24 11.8517 23.8504 11.1438 23.6595 10.7128ZM23.1048 18.922C23.1048 19.086 22.9713 19.2204 22.8073 19.2204V19.6684L22.8056 19.2204L1.26568 19.2173C1.06631 19.2173 0.929211 19.133 0.91353 19.133C0.913082 19.133 0.913082 19.133 0.912634 19.133C0.901882 18.978 0.896505 18.8217 0.896505 18.6635C0.896057 14.9973 3.87858 12.0157 7.54435 12.0157H19.9099C20.2554 12.0157 20.5542 11.8705 20.7289 11.6174C20.9041 11.3647 20.9328 11.0336 20.8105 10.7105L20.2657 9.28044C20.0556 8.73026 19.4619 8.3127 18.8741 8.29477L8.62231 6.65678L8.55152 6.65096C8.18056 6.65096 7.87858 6.34899 7.87858 5.97802V5.45158C7.87858 5.08958 8.16577 4.79388 8.52419 4.77954L20.2666 6.41798L20.3289 6.42246C20.5632 6.42246 20.8732 6.62497 20.9682 6.83958L22.8418 11.0752C22.9821 11.3924 23.1057 11.9762 23.1057 12.3239V18.922H23.1048Z" fill="#7D7D7D"/>
</svg>
