<svg width="84" height="84" viewBox="0 0 84 84" fill="none" xmlns="http://www.w3.org/2000/svg">
<path d="M66.1649 51.4229L43.582 38.4055V37.437C43.582 36.3325 44.2157 35.3051 45.2358 34.7558C47.534 33.5183 48.9001 31.1349 48.8009 28.5356C48.6668 25.022 45.7952 22.1651 42.2637 22.0318C40.395 21.9604 38.6253 22.6314 37.2806 23.919C35.935 25.2075 35.194 26.9402 35.194 28.7978C35.194 29.6669 35.9023 30.3714 36.776 30.3714C37.6497 30.3714 38.3581 29.6669 38.3581 28.7978C38.3581 27.8034 38.7547 26.8761 39.475 26.1863C40.1944 25.4975 41.141 25.138 42.1435 25.1768C44.032 25.2481 45.5674 26.7759 45.6392 28.655C45.6924 30.0479 44.9606 31.325 43.7297 31.9879C41.687 33.0878 40.418 35.1757 40.418 37.437V38.4055L17.8351 51.4229C16.0863 52.431 15 54.3064 15 56.3171C15 59.436 17.5504 61.9733 20.6854 61.9733H63.3146C66.4496 61.9733 69 59.4358 69 56.317C69 54.3063 67.9137 52.431 66.1649 51.4229ZM63.3146 58.8259H20.6854C19.2951 58.8259 18.1641 57.7004 18.1641 56.317C18.1641 55.4251 18.6458 54.5932 19.4216 54.1462L42 41.1313L64.5784 54.1462C65.354 54.5933 65.8359 55.4251 65.8359 56.3171C65.8359 57.7005 64.7049 58.8259 63.3146 58.8259Z" fill="#F08283"/>
<path d="M10.9121 15.268C11.9584 14.0522 13.0749 12.8986 14.2552 11.8132M20.8699 6.85714C27.0406 3.13891 34.2705 1 42 1C64.6437 1 83 19.3563 83 42C83 64.6437 64.6437 83 42 83C19.3563 83 0.999999 64.6437 0.999999 42C0.999999 36.0003 2.2887 30.3016 4.6044 25.1656" stroke="#F08283" stroke-width="2" stroke-linecap="round"/>
</svg>
