<svg width="84" height="84" viewBox="0 0 84 84" fill="none" xmlns="http://www.w3.org/2000/svg">
<path d="M50.4375 60.4375C50.4375 61.3005 49.738 62 48.875 62H29.8125C26.3661 62 23.5625 59.1964 23.5625 55.75V38.4062C23.5625 37.5432 24.262 36.8438 25.125 36.8438C25.988 36.8438 26.6875 37.5432 26.6875 38.4062V55.75C26.6875 57.473 28.0895 58.875 29.8125 58.875H48.875C49.738 58.875 50.4375 59.5745 50.4375 60.4375ZM62 26.6875V31.375C62 32.238 61.3005 32.9375 60.4375 32.9375V44.3438C60.4375 45.2068 59.738 45.9062 58.875 45.9062C58.012 45.9062 57.3125 45.2068 57.3125 44.3438V32.9375H23.5625C22.6995 32.9375 22 32.238 22 31.375V26.6875C22 24.1027 24.1027 22 26.6875 22H57.3125C59.8973 22 62 24.1027 62 26.6875ZM25.125 29.8125H58.875V26.6875C58.875 25.826 58.174 25.125 57.3125 25.125H26.6875C25.826 25.125 25.125 25.826 25.125 26.6875V29.8125ZM45.4375 39.1875C46.3005 39.1875 47 38.488 47 37.625C47 36.762 46.3005 36.0625 45.4375 36.0625H38.4062C37.5432 36.0625 36.8438 36.762 36.8438 37.625C36.8438 38.488 37.5432 39.1875 38.4062 39.1875H45.4375ZM55.0859 48.1719H46.8444L48.8018 46.2361C49.4155 45.6292 49.421 44.6398 48.814 44.0264C48.2073 43.413 47.2179 43.4072 46.6045 44.0142L43.7029 46.8834C42.9589 47.6192 42.5484 48.5991 42.5469 49.6428C42.5453 50.6865 42.9531 51.6674 43.6949 52.4053L46.6011 55.2953C46.9063 55.5986 47.3046 55.75 47.7031 55.75C48.1044 55.75 48.5057 55.5962 48.8112 55.2892C49.4197 54.6773 49.4167 53.6882 48.8048 53.0797L47.0122 51.2969H55.0859C57.1752 51.2969 58.875 52.9967 58.875 55.0859C58.875 57.1752 57.1947 58.875 55.1293 58.875C54.2662 58.875 53.5668 59.5745 53.5668 60.4375C53.5668 61.3005 54.2662 62 55.1293 62C56.9765 62 58.7075 61.2786 60.0026 59.9688C61.2908 58.6663 62 56.9323 62 55.0859C62 51.2734 58.8985 48.1719 55.0859 48.1719Z" fill="#F08283"/>
<path d="M14.2552 72.1868C13.6622 71.6415 13.0853 71.079 12.5254 70.5M20.8699 77.1429C27.0406 80.8611 34.2705 83 42 83C64.6437 83 83 64.6437 83 42C83 19.3563 64.6437 1 42 1C19.3563 1 1 19.3563 1 42C1 47.9997 2.2887 53.6984 4.60439 58.8344" stroke="#F08283" stroke-width="2" stroke-linecap="round"/>
</svg>
