<svg width="22" height="22" viewBox="0 0 22 22" fill="none" xmlns="http://www.w3.org/2000/svg">
<path d="M18.0706 9.42857C18.0706 14.9286 10.9992 19.6429 10.9992 19.6429C10.9992 19.6429 3.92773 14.9286 3.92773 9.42857C3.92773 7.55311 4.67276 5.75446 5.99891 4.42831C7.32506 3.10216 9.1237 2.35714 10.9992 2.35714C12.8746 2.35714 14.6733 3.10216 15.9994 4.42831C17.3256 5.75446 18.0706 7.55311 18.0706 9.42857Z" stroke="#7D7D7D" stroke-width="2" stroke-linecap="round"/>
<path d="M10.9997 11.7857C12.3015 11.7857 13.3569 10.7304 13.3569 9.42857C13.3569 8.12676 12.3015 7.07143 10.9997 7.07143C9.69791 7.07143 8.64258 8.12676 8.64258 9.42857C8.64258 10.7304 9.69791 11.7857 10.9997 11.7857Z" stroke="#7D7D7D" stroke-width="2" stroke-linecap="round" stroke-linejoin="round"/>
</svg>
