<svg width="18" height="18" viewBox="0 0 18 18" fill="none" xmlns="http://www.w3.org/2000/svg">
<path d="M16.769 12.8658V15.2229C16.7698 15.4418 16.725 15.6583 16.6374 15.8588C16.5497 16.0593 16.4211 16.2393 16.2599 16.3873C16.0986 16.5352 15.9083 16.6478 15.701 16.7179C15.4937 16.788 15.274 16.8141 15.0561 16.7944C12.6383 16.5316 10.3159 15.7055 8.27538 14.3822C6.37696 13.1759 4.76743 11.5663 3.5611 9.66793C2.23322 7.61816 1.40686 5.28442 1.14896 2.85579C1.12932 2.63851 1.15514 2.41953 1.22478 2.21278C1.29441 2.00603 1.40633 1.81604 1.55341 1.65492C1.7005 1.49379 1.87952 1.36506 2.07908 1.27691C2.27864 1.18876 2.49437 1.14313 2.71253 1.14293H5.06967C5.45098 1.13918 5.82065 1.2742 6.10977 1.52285C6.39889 1.77149 6.58773 2.11678 6.6411 2.49436C6.74059 3.2487 6.92509 3.98936 7.1911 4.70221C7.29681 4.98344 7.31969 5.28908 7.25702 5.58291C7.19436 5.87674 7.04878 6.14644 6.83753 6.36007L5.83967 7.35793C6.95818 9.325 8.58688 10.9537 10.554 12.0722L11.5518 11.0744C11.7654 10.8631 12.0351 10.7175 12.329 10.6549C12.6228 10.5922 12.9284 10.6151 13.2097 10.7208C13.9225 10.9868 14.6632 11.1713 15.4175 11.2708C15.7992 11.3246 16.1478 11.5169 16.3969 11.811C16.6461 12.105 16.7785 12.4805 16.769 12.8658Z" stroke="#7D7D7D" stroke-width="2" stroke-linecap="round" stroke-linejoin="round"/>
</svg>
