<svg width="18" height="22" viewBox="0 0 18 22" fill="none" xmlns="http://www.w3.org/2000/svg">
<path d="M9.06524 0.714355C3.42713 0.714355 0.428711 4.32738 0.428711 8.26698C0.428711 10.0941 1.44961 12.3725 3.08383 13.0951C3.33198 13.2069 3.46699 13.1593 3.52228 12.9292C3.57114 12.7543 3.78586 11.9121 3.89001 11.5148C3.92215 11.3876 3.90544 11.277 3.80258 11.1574C3.25998 10.5299 2.82925 9.38689 2.82925 8.31455C2.82925 5.56686 5.01377 2.89888 8.73094 2.89888C11.9454 2.89888 14.1942 4.98698 14.1942 7.97383C14.1942 11.349 12.4082 13.6839 10.0874 13.6839C8.80294 13.6839 7.84633 12.6759 8.14977 11.4287C8.51622 9.94363 9.23496 8.3467 9.23496 7.27565C9.23496 6.31518 8.69237 5.52057 7.58403 5.52057C6.2764 5.52057 5.21564 6.81534 5.21564 8.55371C5.21564 9.65819 5.60651 10.4039 5.60651 10.4039C5.60651 10.4039 4.31303 15.6293 4.07259 16.6052C3.66628 18.2574 4.12788 20.9331 4.16774 21.1633C4.19217 21.2906 4.33489 21.3304 4.4146 21.2263C4.5419 21.0591 6.10539 18.8283 6.54384 17.216C6.70328 16.6284 7.35774 14.2458 7.35774 14.2458C7.78847 15.0237 9.03181 15.6756 10.3562 15.6756C14.2958 15.6756 17.1425 12.213 17.1425 7.91597C17.1283 3.79635 13.6027 0.714355 9.06524 0.714355Z"/>
</svg>
