<svg width="84" height="84" viewBox="0 0 84 84" fill="none" xmlns="http://www.w3.org/2000/svg">
<g clip-path="url(#clip0)">
<path d="M58.5688 41.193H58.4772V39.0302C58.4772 37.1775 56.9699 35.6699 55.1169 35.6699H50.1929V34.1059H53.046C53.7577 34.1059 54.3351 33.5288 54.3351 32.8168V28.6747C54.3351 27.9627 53.7577 27.3856 53.046 27.3856H46.1421C45.4301 27.3856 44.8531 27.9627 44.8531 28.6747V32.8168C44.8531 33.5288 45.4301 34.1059 46.1421 34.1059H47.6145V35.7246C46.0464 36.0079 44.8531 37.3819 44.8531 39.0302V41.193H40.5276V36.9589C40.5276 34.5721 39.2923 32.4694 37.4289 31.2525C38.485 30.2608 39.1469 28.8536 39.1469 27.294C39.1469 24.2993 36.7105 21.8628 33.7158 21.8628C30.7207 21.8628 28.2842 24.2993 28.2842 27.294C28.2842 28.8536 28.9462 30.2612 30.0027 31.2525C28.1389 32.4694 26.9039 34.5721 26.9039 36.9593V41.193H25.4312C22.4365 41.193 20 43.6295 20 46.6242V56.2895C20 59.2842 22.4365 61.7207 25.4312 61.7207H58.5688C61.5635 61.7207 64 59.2842 64 56.2895V46.6242C64 43.6295 61.5635 41.193 58.5688 41.193ZM47.4312 29.9637H51.7566V31.5281H47.4312V29.9637ZM47.4312 39.0302C47.4312 38.5991 47.782 38.2483 48.2133 38.2483H55.1169C55.5482 38.2483 55.899 38.5991 55.899 39.0302V41.193H47.4312V39.0302ZM30.8624 27.294C30.8624 25.7209 32.1424 24.4409 33.7158 24.4409C35.2888 24.4409 36.5688 25.7209 36.5688 27.294C36.5688 28.8674 35.2888 30.147 33.7158 30.147C32.1424 30.147 30.8624 28.8674 30.8624 27.294ZM29.4817 36.9593C29.4817 34.6245 31.381 32.7252 33.7158 32.7252C36.0502 32.7252 37.9495 34.6245 37.9495 36.9593V41.193H29.482V36.9593H29.4817ZM61.4219 56.2895C61.4219 57.8625 60.1419 59.1425 58.5688 59.1425H25.4312C23.8581 59.1425 22.5781 57.8625 22.5781 56.2895V46.6242C22.5781 45.0508 23.8581 43.7711 25.4312 43.7711H58.5688C60.1419 43.7711 61.4219 45.0511 61.4219 46.6242V56.2895Z" fill="#F08283"/>
<path d="M55.8083 46.7158H29.5742C28.8625 46.7158 28.2852 47.2929 28.2852 48.0049C28.2852 48.7169 28.8625 49.2939 29.5742 49.2939H55.8083C56.52 49.2939 57.0974 48.7169 57.0974 48.0049C57.0974 47.2929 56.52 46.7158 55.8083 46.7158Z" fill="#F08283"/>
<path d="M50.2836 52.239H36.4766C35.7646 52.239 35.1875 52.8161 35.1875 53.5281C35.1875 54.2397 35.7646 54.8171 36.4766 54.8171H50.2836C50.9956 54.8171 51.5727 54.2397 51.5727 53.5281C51.5727 52.8161 50.9956 52.239 50.2836 52.239Z" fill="#F08283"/>
</g>
<path d="M73.0879 15.268C72.0416 14.0522 70.9251 12.8986 69.7448 11.8132M63.1301 6.85714C56.9594 3.13891 49.7295 1 42 1C19.3563 1 1 19.3563 1 42C1 64.6437 19.3563 83 42 83C64.6437 83 83 64.6437 83 42C83 36.0003 81.7113 30.3016 79.3956 25.1656" stroke="#F08283" stroke-width="2" stroke-linecap="round"/>
<defs>
<clipPath id="clip0">
<rect width="44" height="40" fill="white" transform="translate(20 22)"/>
</clipPath>
</defs>
</svg>
