<svg width="26" height="26" viewBox="0 0 26 26" fill="none" xmlns="http://www.w3.org/2000/svg">
<path d="M4.64258 7.42856H6.49972H21.3569" stroke="#333333" stroke-width="2" stroke-linecap="round" stroke-linejoin="round"/>
<path d="M9.28571 7.42858V5.57144C9.28571 5.07889 9.48138 4.60652 9.82966 4.25824C10.1779 3.90996 10.6503 3.71429 11.1429 3.71429H14.8571C15.3497 3.71429 15.8221 3.90996 16.1703 4.25824C16.5186 4.60652 16.7143 5.07889 16.7143 5.57144V7.42858M19.5 7.42858V20.4286C19.5 20.9211 19.3043 21.3935 18.9561 21.7418C18.6078 22.0901 18.1354 22.2857 17.6429 22.2857H8.35714C7.8646 22.2857 7.39223 22.0901 7.04394 21.7418C6.69566 21.3935 6.5 20.9211 6.5 20.4286V7.42858H19.5Z" stroke="#333333" stroke-width="2" stroke-linecap="round" stroke-linejoin="round"/>
<path d="M11.1426 12.0714V17.6429" stroke="#333333" stroke-width="2" stroke-linecap="round" stroke-linejoin="round"/>
<path d="M14.8574 12.0714V17.6429" stroke="#333333" stroke-width="2" stroke-linecap="round" stroke-linejoin="round"/>
</svg>
