<svg width="24" height="24" viewBox="0 0 24 24" fill="none" xmlns="http://www.w3.org/2000/svg">
<path d="M23.4995 5.04634C23.1216 4.74745 22.6905 4.96082 22.6905 5.20168C22.6905 5.44298 22.8651 5.63192 22.999 5.76588C23.0784 5.84486 23.1269 5.95395 23.1269 6.07438V6.51073C23.1269 6.75159 22.9318 6.93573 22.6905 6.93573C22.6905 6.93573 22.5893 6.93573 22.4632 6.93573C22.3384 6.93573 22.2097 7.10416 22.1756 7.31143L22.1154 7.68712L21.8156 9.93475L20.6611 8.987C19.9612 8.41233 18.8066 8.3303 18.0334 8.79981L16.6423 9.64545C16.1667 9.93475 15.3276 9.94173 14.8476 9.66072L13.3344 8.77712C12.5699 8.33073 11.3961 8.36826 10.6613 8.86395L9.56605 9.60356C9.11269 9.90901 8.30413 9.93082 7.83637 9.64763L6.42522 8.79632C5.65725 8.33379 4.49351 8.39008 3.77572 8.92766L2.38595 9.96573L2.08269 7.68712C2.08269 7.68712 2.06567 7.52131 2.04473 7.31666C2.02378 7.11202 1.85099 6.94184 1.65812 6.94315C1.48358 6.94446 1.30904 6.94664 1.30904 6.94664C1.06818 6.94664 0.872696 6.75159 0.872696 6.51073V6.07438C0.872696 5.95395 0.921566 5.84486 1.00055 5.76588C1.1345 5.63192 1.30904 5.44298 1.30904 5.20168C1.30904 4.96038 0.878368 4.74745 0.500055 5.04634C0.19592 5.28634 0.000436348 5.65767 0.000436348 6.07438V6.51029H0C0 7.23201 0.587324 7.81933 1.30904 7.81933C1.31602 7.81933 1.48838 9.07951 1.70961 10.7189C1.71136 10.7538 1.71354 10.7874 1.72357 10.821C2.13549 13.8724 2.70623 18.1542 2.70623 18.1542C2.77735 18.6844 3.2521 19.1002 3.78663 19.1002H20.4115C20.9469 19.1002 21.4207 18.6844 21.4923 18.1542L22.8834 7.80014C23.513 7.70632 24 7.16656 24 6.51073V6.07438C23.9991 5.65767 23.8041 5.2859 23.4995 5.04634ZM20.7331 18.0534C20.7134 18.2018 20.5598 18.3366 20.4106 18.3366H3.78575C3.63609 18.3366 3.48249 18.2005 3.46286 18.0534L2.51729 10.9562L4.29715 9.62625C4.72957 9.30335 5.51195 9.26496 5.9736 9.54335L7.38475 10.3947C8.14443 10.8537 9.31777 10.8232 10.0535 10.327L11.1482 9.58742C11.6038 9.28066 12.418 9.25361 12.8932 9.53025L14.406 10.4139C15.1631 10.8568 16.3443 10.8467 17.0948 10.3907L18.4859 9.54509C18.9462 9.26626 19.6884 9.31775 20.106 9.66072L21.6786 10.9519L20.7331 18.0534Z" fill="#7D7D7D"/>
<path d="M11.1266 13.8854C11.0114 13.789 10.8805 13.717 10.7339 13.6681C10.5873 13.6201 10.4389 13.5948 10.2893 13.5948C10.1427 13.5948 10.0144 13.6132 9.90442 13.6498C9.79446 13.6865 9.69061 13.7345 9.59287 13.7938L9.61905 13.3169H11.3522V12.3486H8.70839L8.60367 14.2542L9.34197 14.6207C9.4288 14.5513 9.51607 14.4959 9.60378 14.4536C9.69105 14.4112 9.79054 14.3903 9.90268 14.3903C10.0318 14.3903 10.1353 14.4208 10.2142 14.4841C10.2928 14.5465 10.332 14.6312 10.332 14.7385V14.749C10.3307 14.8493 10.2906 14.9327 10.2107 14.9986C10.13 15.0645 10.017 15.0972 9.87039 15.0972C9.72028 15.0972 9.57105 15.0627 9.42269 14.9929C9.27434 14.9231 9.12205 14.8253 8.96453 14.6992L8.28906 15.4873C8.49153 15.674 8.71887 15.8207 8.97195 15.9297C9.22503 16.0388 9.5296 16.0934 9.8861 16.0934C10.1195 16.0934 10.336 16.0637 10.5349 16.0039C10.7339 15.9441 10.9063 15.8582 11.0511 15.7447C11.196 15.6308 11.3095 15.4925 11.3911 15.3289C11.4731 15.1644 11.5141 14.9759 11.5141 14.7629V14.7525C11.5141 14.5605 11.4783 14.392 11.4068 14.2472C11.3352 14.1023 11.2418 13.9819 11.1266 13.8854Z" fill="#7D7D7D"/>
<path d="M15.0658 12.8801C14.9131 12.706 14.7289 12.5672 14.5107 12.4643C14.2926 12.3613 14.0456 12.3098 13.7698 12.3098C13.4901 12.3098 13.2418 12.3621 13.0237 12.4669C12.8055 12.5716 12.6205 12.7112 12.4686 12.8858C12.3164 13.0599 12.2007 13.2636 12.1204 13.4953C12.0397 13.727 12 13.9692 12 14.2205V14.2306C12 14.4815 12.0393 14.7232 12.1183 14.9527C12.1964 15.1831 12.3116 15.386 12.4638 15.561C12.6157 15.7355 12.7994 15.8747 13.0167 15.9777C13.2331 16.0798 13.4801 16.1322 13.7598 16.1322C14.036 16.1322 14.2838 16.0794 14.5038 15.9747C14.7237 15.8708 14.9096 15.7307 15.0605 15.5562C15.2128 15.3817 15.3285 15.1788 15.4092 14.9462C15.4899 14.7149 15.5292 14.4723 15.5292 14.221V14.211C15.5292 13.9596 15.4895 13.7183 15.4109 13.4884C15.332 13.2575 15.2172 13.0551 15.0658 12.8801ZM14.314 14.2315C14.314 14.4824 14.2655 14.6853 14.1673 14.8389C14.0692 14.9929 13.9374 15.0697 13.7694 15.0697C13.686 15.0697 13.6101 15.0483 13.5421 15.0064C13.474 14.9636 13.4151 14.9065 13.3666 14.8336C13.3178 14.7603 13.2802 14.6717 13.2541 14.567C13.2279 14.4627 13.2148 14.3471 13.2148 14.221V14.211C13.2148 13.9596 13.2632 13.7571 13.3614 13.6031C13.4591 13.4491 13.5914 13.3732 13.7594 13.3732C13.8423 13.3732 13.9186 13.3937 13.9867 13.4364C14.0548 13.4788 14.1132 13.5359 14.1621 13.6092C14.2105 13.6825 14.2481 13.772 14.2747 13.8763C14.3013 13.981 14.314 14.0966 14.314 14.2214V14.2315Z" fill="#7D7D7D"/>
</svg>
