<svg width="24" height="24" viewBox="0 0 24 24" fill="none" xmlns="http://www.w3.org/2000/svg">
<g clip-path="url(#clip0)">
<path d="M23.916 5.90087C23.7696 5.69079 23.4807 5.63886 23.2693 5.78654L17.3008 9.95708L12.9019 1.89668C12.6714 1.47497 12.3203 1.23248 11.9387 1.23248C11.5557 1.23248 11.2045 1.47583 10.975 1.90143L6.65078 9.91483L0.730418 5.78611C0.518526 5.63981 0.230328 5.69131 0.0833345 5.9013C-0.0629679 6.11181 -0.0117232 6.40122 0.198527 6.54796L6.20669 10.7375L0.638126 21.0582C0.413098 21.4756 0.397889 21.9069 0.598202 22.2413C0.797736 22.576 1.18384 22.7675 1.65766 22.7675H22.3456C22.8029 22.7675 23.1739 22.5856 23.3785 22.273C23.4057 22.249 23.4384 22.233 23.4602 22.2023C23.5385 22.0898 23.5562 21.9563 23.5268 21.8316C23.5517 21.5862 23.5024 21.3213 23.3598 21.06L17.7487 10.7779L23.8016 6.54796C24.0118 6.40079 24.063 6.11138 23.916 5.90087ZM11.792 2.34259C11.8637 2.20985 11.928 2.16569 11.9325 2.16068C11.9489 2.16569 12.0136 2.20899 12.0862 2.34216L16.5345 10.4929L12.0123 13.6531L7.41764 10.45L11.792 2.34259ZM11.2007 14.22L1.86152 20.7461L6.97355 11.2722L11.2007 14.22ZM12.0128 14.7862L22.1265 21.8385H1.92002L12.0128 14.7862ZM22.0969 20.6853L12.8237 14.2192L16.9822 11.313L22.0969 20.6853Z" fill="#7D7D7D"/>
</g>
<defs>
<clipPath id="clip0">
<rect width="24" height="24" fill="white"/>
</clipPath>
</defs>
</svg>
