<svg width="24" height="24" viewBox="0 0 24 24" fill="none" xmlns="http://www.w3.org/2000/svg">
<g clip-path="url(#clip0)">
<path d="M22.2525 20.6082V4.06785L23.8484 2.61163C24.038 2.43879 24.0517 2.14532 23.8783 1.95572C23.706 1.76612 23.4117 1.75238 23.2229 1.92625L22.1522 2.90242C21.9309 2.2918 21.351 1.85314 20.6657 1.85314H3.33388C2.64773 1.85314 2.06752 2.29266 1.84681 2.90329L0.777735 1.92625C0.589258 1.75376 0.294574 1.76612 0.121566 1.95572C-0.0512695 2.1448 -0.0383069 2.43879 0.150861 2.61215L1.747 4.07148V20.6091C1.747 21.484 2.45847 22.1957 3.33388 22.1957H20.6662C21.5412 22.1955 22.2525 21.4833 22.2525 20.6082ZM21.3234 20.6082C21.3234 20.6412 21.3184 20.6735 21.3135 20.7057L19.1015 18.6829C20.1095 17.6091 20.882 16.3126 21.3229 14.8691V20.6082H21.3234ZM2.6765 20.6082V14.8691C3.1149 16.3036 3.88134 17.5919 4.88007 18.6625L2.68238 20.6675C2.68013 20.6475 2.6765 20.6286 2.6765 20.6082ZM12.6762 12.8064L19.1595 6.89086C20.2002 8.33887 20.8208 10.1085 20.8208 12.0238C20.8208 14.3578 19.9031 16.4773 18.4174 18.0568L12.6762 12.8064ZM17.7464 18.7019C16.2013 20.0333 14.1949 20.8445 12.0005 20.8445C9.79568 20.8445 7.78249 20.0256 6.23415 18.6838L11.9871 13.4351L17.7464 18.7019ZM11.988 12.1767L5.41992 6.17048C7.03645 4.35502 9.3839 3.20272 12.0005 3.20272C14.6146 3.20272 16.9599 4.35277 18.5766 6.16547L11.988 12.1767ZM11.2987 12.8064L5.56484 18.0372C4.09012 16.4595 3.1792 14.3482 3.1792 12.0238C3.1792 10.1108 3.79777 8.34345 4.8366 6.89673L11.2987 12.8064ZM5.54583 19.3116C6.51812 20.1731 7.65883 20.845 8.91733 21.2659H3.40431L5.54583 19.3116ZM18.4342 19.3306L20.5504 21.266H15.0836C16.333 20.8481 17.4665 20.1836 18.4342 19.3306ZM19.8481 6.26303L21.3248 4.91578V9.17902C20.9996 8.1166 20.4915 7.13715 19.8481 6.26303ZM21.3239 3.44011V3.65866L19.2617 5.54084C18.143 4.28925 16.7104 3.32656 15.0837 2.78273H20.667C21.029 2.78178 21.3239 3.07664 21.3239 3.44011ZM2.6765 3.44011C2.6765 3.07716 2.97136 2.7823 3.33423 2.7823H8.91793C7.28913 3.32708 5.85521 4.29107 4.73558 5.54447L2.6765 3.66134V3.44011ZM4.14906 6.26753C3.50689 7.14078 3.00014 8.11842 2.6765 9.17859V4.92071L4.14906 6.26753Z" fill="#7D7D7D"/>
</g>
<defs>
<clipPath id="clip0">
<rect width="24" height="24" fill="white"/>
</clipPath>
</defs>
</svg>
