<svg width="20" height="19" viewBox="0 0 20 19" fill="none" xmlns="http://www.w3.org/2000/svg">
<path d="M17.2497 2.6497C16.8308 2.21728 16.3335 1.87424 15.7861 1.64021C15.2387 1.40617 14.652 1.28571 14.0595 1.28571C13.4669 1.28571 12.8802 1.40617 12.3328 1.64021C11.7855 1.87424 11.2881 2.21728 10.8692 2.6497L9.99992 3.54672L9.1306 2.6497C8.2845 1.77664 7.13694 1.28616 5.94037 1.28616C4.74381 1.28616 3.59625 1.77664 2.75015 2.6497C1.90405 3.52277 1.42871 4.70689 1.42871 5.94159C1.42871 7.17629 1.90405 8.36042 2.75015 9.23348L3.61946 10.1305L9.99992 16.7143L16.3804 10.1305L17.2497 9.23348C17.6688 8.80126 18.0012 8.28807 18.228 7.72324C18.4548 7.1584 18.5716 6.55299 18.5716 5.94159C18.5716 5.33019 18.4548 4.72478 18.228 4.15995C18.0012 3.59512 17.6688 3.08193 17.2497 2.6497V2.6497Z" stroke-width="2"/>
</svg>
