<svg width="20" height="14" viewBox="0 0 20 14" fill="none" xmlns="http://www.w3.org/2000/svg">
<path d="M19.4596 2.25573C19.2374 1.42952 18.586 0.778224 17.7599 0.555751C16.2507 0.142822 10.2139 0.142822 10.2139 0.142822C10.2139 0.142822 4.17735 0.142822 2.66819 0.540096C1.85798 0.762333 1.19068 1.42964 0.968445 2.25573C0.571289 3.76478 0.571289 6.89435 0.571289 6.89435C0.571289 6.89435 0.571289 10.0397 0.968445 11.533C1.19092 12.3591 1.84209 13.0104 2.6683 13.2328C4.19325 13.6459 10.2141 13.6459 10.2141 13.6459C10.2141 13.6459 16.2507 13.6459 17.7599 13.2486C18.5861 13.0263 19.2374 12.375 19.4598 11.5489C19.8569 10.0397 19.8569 6.91024 19.8569 6.91024C19.8569 6.91024 19.8728 3.76478 19.4596 2.25573ZM8.29193 9.78556V4.00314L13.3118 6.89435L8.29193 9.78556Z"/>
</svg>
